<svg xmlns="http://www.w3.org/2000/svg" version="1.1" xmlns:xlink="http://www.w3.org/1999/xlink" xmlns:svgjs="http://svgjs.dev/svgjs" viewBox="0 0 800 800"><defs><filter id="ssspot-filter" x="-20%" y="-20%" width="140%" height="140%" filterUnits="objectBoundingBox" primitiveUnits="userSpaceOnUse" color-interpolation-filters="sRGB">
	<feTurbulence type="turbulence" baseFrequency="0.022 0.218" numOctaves="2" seed="92" stitchTiles="stitch" x="0%" y="0%" width="100%" height="100%" result="turbulence"></feTurbulence>
	<feGaussianBlur stdDeviation="0 3" x="0%" y="0%" width="100%" height="100%" in="turbulence" edgeMode="duplicate" result="blur"></feGaussianBlur>
	<feDisplacementMap in="SourceGraphic" in2="blur" scale="32" xChannelSelector="R" yChannelSelector="B" x="0%" y="0%" width="100%" height="100%" result="displacementMap"></feDisplacementMap>
</filter></defs><rect width="100%" height="100%" fill="hsl(329, 28%, 68%)"></rect><g fill="hsl(341, 25%, 58%)" filter="url(#ssspot-filter)"><circle r="8.567850172848381" cx="417.5214023305" cy="523.8014751347098" opacity="0.8474544470647123"></circle><circle r="7.322503156703959" cx="339.1817069195985" cy="590.7997530432928" opacity="0.8028230138518857"></circle><circle r="7.157939277747054" cx="417.7329441051822" cy="369.4506951543236" opacity="0.7855664923507192"></circle><circle r="12.056670629879005" cx="480.55390060971143" cy="758.251778242098" opacity="0.26355320317718567"></circle><circle r="4.329784097151719" cx="131.80864736315016" cy="16.49410284268882" opacity="0.8340924039730807"></circle><circle r="4.322125515455761" cx="638.492687392824" cy="197.35947556981105" opacity="0.6763689494273313"></circle><circle r="7.530630777691679" cx="337.2585414532276" cy="299.45231927938505" opacity="0.2934112754839745"></circle><circle r="4.115876742796206" cx="236.3177403038985" cy="11.860420644265504" opacity="0.821509542035282"></circle><circle r="6.471794829298815" cx="783.8717180685398" cy="598.3140445284749" opacity="0.28771923108496916"></circle><circle r="7.4291619354012255" cx="61.31879099202809" cy="190.52336667257464" opacity="0.2035157164708412"></circle><circle r="7.704740862354652" cx="19.64670829222681" cy="97.96043055995567" opacity="0.656680693944214"></circle><circle r="8.14320261756041" cx="474.31510166534326" cy="198.45675778031574" opacity="0.41203954239687857"></circle><circle r="5.475274816839214" cx="19.041311099954292" cy="534.7941040260806" opacity="0.5350462232082965"></circle><circle r="6.434194511450408" cx="138.50515977954302" cy="726.1439058830381" opacity="0.9539969042766566"></circle><circle r="10.755186834311022" cx="20.627979679878756" cy="215.33012708106503" opacity="0.5482019681275019"></circle><circle r="6.389732665907337" cx="668.9194111621749" cy="390.1454979885705" opacity="0.8055608135860017"></circle><circle r="7.189686184812844" cx="113.1507109141029" cy="600.2508864824194" opacity="0.4625531789236842"></circle><circle r="5.158590216249198" cx="160.4077263465003" cy="583.6410503652706" opacity="0.9701674559805186"></circle><circle r="10.316327857251906" cx="91.73265205068338" cy="359.38375269543707" opacity="0.24347690221572746"></circle><circle r="11.80943230936106" cx="721.0317263278987" cy="413.6065566707233" opacity="0.6785306843152714"></circle><circle r="9.901075479182202" cx="570.8548800250697" cy="586.9037921249699" opacity="0.3481047652729551"></circle><circle r="3.3238174354512333" cx="187.61870705725443" cy="44.616585887379856" opacity="0.21939825343094455"></circle><circle r="9.493902058138119" cx="365.3496538108588" cy="146.7705502291535" opacity="0.726203503271108"></circle><circle r="5.5832035718525015" cx="778.4790347020942" cy="69.22103912335987" opacity="0.3032443948913133"></circle><circle r="6.256097997700332" cx="34.255955432986106" cy="451.0633598305669" opacity="0.6090824710117999"></circle><circle r="4.756405203279474" cx="565.7245435971342" cy="656.3527520877509" opacity="0.1563540009330498"></circle><circle r="6.06451372035845" cx="293.8661627289805" cy="395.4104240828044" opacity="0.9192406887336131"></circle><circle r="7.080328765405946" cx="314.32983957215964" cy="769.9031663580683" opacity="0.9305770509405507"></circle><circle r="9.648030870994475" cx="334.83457327518187" cy="723.5522062644725" opacity="0.8527766195474903"></circle><circle r="7.5487519796276334" cx="272.7350575471952" cy="601.6248771875945" opacity="0.17030472491152165"></circle><circle r="5.926545715657345" cx="20.897682290297254" cy="146.93734182449282" opacity="0.7792236939391414"></circle><circle r="4.1028115271733405" cx="276.2545913837042" cy="123.22496674811538" opacity="0.8682689624467499"></circle><circle r="5.4666790218070425" cx="71.98800139272852" cy="525.349904889093" opacity="0.4335726308295337"></circle><circle r="4.506293435570116" cx="239.78223720812105" cy="606.5969454073949" opacity="0.31578850987371976"></circle><circle r="6.341112432996223" cx="517.0179303614576" cy="505.91825729681545" opacity="0.5527181427764808"></circle><circle r="8.18267636206971" cx="266.01241929192196" cy="776.4220523234147" opacity="0.6431774521952345"></circle><circle r="7.199603227132332" cx="213.40045387918244" cy="266.3402906088214" opacity="0.6793385217668955"></circle><circle r="5.565063109788818" cx="111.84711364665246" cy="265.9858776279384" opacity="0.7286635157860316"></circle><circle r="7.631801368527454" cx="123.69662714079249" cy="181.7992203272918" opacity="0.6967383383184367"></circle><circle r="7.318429787741833" cx="534.9571120702044" cy="638.5433285179099" opacity="0.2977447244633925"></circle><circle r="6.785149634258167" cx="665.420331133502" cy="215.18070069212928" opacity="0.9309170353051854"></circle><circle r="8.29366209084364" cx="139.94809240731584" cy="381.0849128329505" opacity="0.4198596617124626"></circle><circle r="7.7998216175669" cx="751.2301909258837" cy="226.52013811461038" opacity="0.10939738569491204"></circle><circle r="5.169275923606285" cx="170.22985597522293" cy="18.270238230824834" opacity="0.33623478350051783"></circle><circle r="10.977375892959202" cx="414.44485474577397" cy="140.962160382402" opacity="0.6812167317012093"></circle><circle r="3.913484947739914" cx="145.50594886663663" cy="614.6024325640473" opacity="0.73448723355147"></circle><circle r="6.019072872997287" cx="138.2039230954535" cy="336.26371968820706" opacity="0.6005635206134387"></circle><circle r="5.750294935556525" cx="153.9037805452369" cy="691.9985351064447" opacity="0.14607738886255547"></circle><circle r="4.835645000220218" cx="16.39536927680659" cy="371.26038659985335" opacity="0.341991908755744"></circle><circle r="8.210590042964295" cx="66.68770356831367" cy="241.67743259984954" opacity="0.3924584171159434"></circle><circle r="6.34889464793606" cx="245.15148850558145" cy="457.04479337806833" opacity="0.8823068797889831"></circle><circle r="5.997918233864422" cx="281.7614864145113" cy="696.0533641745998" opacity="0.8633478267435234"></circle><circle r="5.885421874090144" cx="216.68570391393845" cy="76.39180135838807" opacity="0.19810863529524098"></circle><circle r="6.207320969467172" cx="61.856047257346084" cy="713.4888857393772" opacity="0.4765588467195184"></circle><circle r="7.381543169773123" cx="65.30515805404299" cy="460.79341744606324" opacity="0.9503758261825794"></circle><circle r="9.436338242993894" cx="198.03332266086238" cy="619.8864697323307" opacity="0.7517960825872757"></circle><circle r="10.041704969959248" cx="667.6744340233192" cy="757.6167148307239" opacity="0.9271120122032522"></circle><circle r="6.252821837983834" cx="232.49433597826035" cy="644.5302311574042" opacity="0.5984471229296849"></circle><circle r="11.387253621899298" cx="105.22348154401642" cy="688.1529799909603" opacity="0.19504179336298516"></circle><circle r="4.980151271409517" cx="371.191398502705" cy="100.4166454506893" opacity="0.9067800588448115"></circle><circle r="8.468342134810966" cx="680.1389584668999" cy="62.555655053806696" opacity="0.28103572157178125"></circle><circle r="7.985601887749432" cx="574.1698458822862" cy="253.67271679558175" opacity="0.25329496361547477"></circle><circle r="3.9531889378177247" cx="336.5862160259214" cy="332.76270710615717" opacity="0.528669434401019"></circle><circle r="6.493580517723959" cx="565.8611395559275" cy="718.5023248280667" opacity="0.135965052483993"></circle><circle r="7.982087362624875" cx="747.2625182501483" cy="20.956376665420407" opacity="0.8496768186582568"></circle><circle r="7.753583396350258" cx="452.0318554637603" cy="396.1618000234953" opacity="0.7807012296915672"></circle><circle r="6.654769297166478" cx="418.7291410288894" cy="775.5155256806746" opacity="0.8621264309894285"></circle><circle r="9.42492743510033" cx="292.97215823141596" cy="347.387873099642" opacity="0.5717294020620296"></circle><circle r="8.31005381706621" cx="19.27553093733405" cy="692.2062070720076" opacity="0.31155873051164074"></circle><circle r="7.891506935468289" cx="250.89288033780298" cy="553.870137173874" opacity="0.45942471005895835"></circle><circle r="4.924840954828718" cx="274.1380206326442" cy="234.56596800638889" opacity="0.3174446123335982"></circle><circle r="4.121211835001162" cx="425.00680854405056" cy="302.8175465657356" opacity="0.16712618276428814"></circle><circle r="5.204461998196443" cx="142.33827831073623" cy="251.29676102880856" opacity="0.3356879722966577"></circle><circle r="4.9952827952853225" cx="678.6476193446874" cy="353.24538727589743" opacity="0.33163995574588606"></circle><circle r="4.909841895448756" cx="360.5504895233517" cy="20.68883038309571" opacity="0.7780334483472733"></circle><circle r="9.40242733083721" cx="523.066419028817" cy="26.56129873496946" opacity="0.7676024894520642"></circle><circle r="3.561130819708789" cx="786.0913507618928" cy="702.1679316056621" opacity="0.8369329184701176"></circle><circle r="5.517973616894119" cx="210.20657877391537" cy="24.519551762462342" opacity="0.6549010721257932"></circle><circle r="5.298198206343365" cx="716.222853493013" cy="319.3783561501434" opacity="0.7075376663877055"></circle><circle r="7.591828197716923" cx="643.7429572771254" cy="61.72250808621868" opacity="0.5651027021012208"></circle><circle r="9.573050955557246" cx="422.85053631153033" cy="26.352471245042203" opacity="0.26983629921460306"></circle><circle r="8.041096792562676" cx="178.19090136812224" cy="73.99309808542678" opacity="0.19931608010283822"></circle><circle r="7.68491689248239" cx="474.68172554325685" cy="365.13931801323236" opacity="0.9235917078501732"></circle><circle r="10.57571588928996" cx="617.8955330553565" cy="167.04726112179554" opacity="0.9093850863238598"></circle><circle r="6.907234879326717" cx="23.079589224727115" cy="602.0908996515755" opacity="0.7167303026250735"></circle><circle r="5.76743431727421" cx="13.638216839773046" cy="434.97200660437136" opacity="0.3606316343661833"></circle><circle r="10.571955240156559" cx="383.56039177670465" cy="289.8290923043207" opacity="0.6883592629278968"></circle><circle r="5.853645830873816" cx="419.89643169815497" cy="599.3044161035003" opacity="0.7104912352344642"></circle><circle r="6.633349741156493" cx="585.3417549995002" cy="346.5930236861172" opacity="0.9699626018572713"></circle><circle r="10.357017634115184" cx="208.05897390688034" cy="576.3186428983888" opacity="0.36691876067127605"></circle><circle r="6.9135310678049" cx="784.2921342672071" cy="773.8652399442615" opacity="0.7918371621391254"></circle><circle r="5.945821893256032" cx="493.04281786022756" cy="477.72235205022065" opacity="0.4484577533969045"></circle><circle r="6.715455569814247" cx="500.01825297880026" cy="240.76516569544017" opacity="0.8492546123860191"></circle><circle r="11.273958060831852" cx="373.88772138729456" cy="394.1189331028593" opacity="0.46012446502478066"></circle><circle r="8.301500248530335" cx="386.0943554669025" cy="726.7280630507785" opacity="0.7438423260478216"></circle><circle r="7.129291566053065" cx="326.1727195794745" cy="509.3871343034158" opacity="0.4587372430919049"></circle><circle r="6.796288930196178" cx="610.6489457271124" cy="317.68501036131687" opacity="0.3278298025105125"></circle><circle r="9.545498997527373" cx="552.051037329796" cy="84.57599633963987" opacity="0.2783522191876412"></circle><circle r="3.3133339997841667" cx="787.2709877578193" cy="376.33764598644274" opacity="0.9275432464243447"></circle><circle r="10.757456893788733" cx="352.3049752066068" cy="645.8721248769068" opacity="0.8973658621134739"></circle><circle r="7.614312306445723" cx="744.9476350070549" cy="129.95308851414967" opacity="0.21774942976073114"></circle><circle r="5.410479924610053" cx="197.89496248746778" cy="190.34022269697033" opacity="0.1470998088533947"></circle><circle r="5.2137411975143815" cx="141.17160845476204" cy="63.28100104608542" opacity="0.24878573497624304"></circle><circle r="8.085310561082611" cx="447.24743151037364" cy="545.9423922048854" opacity="0.24525705820459265"></circle><circle r="7.324264123802153" cx="286.7790648710475" cy="532.4410334731239" opacity="0.1295917008777666"></circle><circle r="6.075005812807545" cx="57.53105286803957" cy="402.3943164383319" opacity="0.850712410220527"></circle><circle r="6.489437185034021" cx="216.83782096110093" cy="161.99465080468548" opacity="0.4196445955452909"></circle><circle r="6.043698906688382" cx="517.1356085437276" cy="786.1844890594023" opacity="0.28150429814469846"></circle><circle r="5.943061939146833" cx="111.75775567746706" cy="458.5396613878471" opacity="0.8461983695013562"></circle><circle r="4.743314724286907" cx="630.8439265963578" cy="233.49226521234954" opacity="0.520110101374588"></circle><circle r="6.168625441854302" cx="306.48684419586493" cy="232.92687372198546" opacity="0.9110936387156584"></circle><circle r="3.6793035212324554" cx="190.63530209360778" cy="669.1550682456543" opacity="0.8751580879939793"></circle><circle r="8.282844387476295" cx="782.3537912923209" cy="321.6984345585138" opacity="0.32221224851772834"></circle><circle r="11.03031230362368" cx="25.53044162169689" cy="279.29924759484" opacity="0.5489697952232735"></circle><circle r="8.07397767592378" cx="396.59067857487463" cy="434.55361532284104" opacity="0.40107269910071663"></circle><circle r="6.496910438511508" cx="287.18095404530226" cy="438.7305943005995" opacity="0.22719510788822272"></circle><circle r="6.231568286362801" cx="613.0504037940814" cy="650.0182175173485" opacity="0.48648399868476655"></circle><circle r="4.546698157946236" cx="725.844567017958" cy="692.8473713844166" opacity="0.16837724115412828"></circle><circle r="5.351814322050443" cx="116.17664908820255" cy="643.4749502449334" opacity="0.9108673423982344"></circle><circle r="9.912964045042834" cx="532.5589097468176" cy="549.4343425244335" opacity="0.6803984334752908"></circle><circle r="9.891275841171018" cx="343.0563206321989" cy="436.72788537596114" opacity="0.9787214059151548"></circle><circle r="5.052968886537719" cx="742.3549044259814" cy="643.8495455707284" opacity="0.9839997913772435"></circle><circle r="9.609262365656457" cx="703.9163256326808" cy="778.1624556812312" opacity="0.8787176049598546"></circle><circle r="8.82208631605048" cx="623.8698133008784" cy="718.4294713736147" opacity="0.6098117582361626"></circle><circle r="3.780454522665361" cx="100.1311662019392" cy="498.6715631629917" opacity="0.8332814199356652"></circle><circle r="8.862020892653522" cx="593.2041735196326" cy="683.7695822547017" opacity="0.9453701884523688"></circle><circle r="6.360986323619118" cx="455.6888013695301" cy="448.4378506048215" opacity="0.24927904317405694"></circle><circle r="8.66023900851512" cx="565.4096221915448" cy="491.0570060577645" opacity="0.9594357106288521"></circle><circle r="9.325169657808289" cx="595.2271110219582" cy="541.640592995924" opacity="0.2196897720870113"></circle><circle r="3.934205512429177" cx="35.18999036091943" cy="758.2424336214638" opacity="0.2194301761974559"></circle><circle r="10.347978966483307" cx="605.3114368404664" cy="72.48651371061352" opacity="0.7789312549013119"></circle><circle r="5.902027593467156" cx="165.18371081576672" cy="634.0085186863275" opacity="0.7555931673808526"></circle><circle r="6.380457167506862" cx="300.845190574078" cy="294.6905931524454" opacity="0.4527158210703335"></circle><circle r="4.859024058054578" cx="494.6830862387034" cy="393.8681386949837" opacity="0.7253786394715406"></circle><circle r="7.45896742087307" cx="470.6752158223657" cy="27.53243958336161" opacity="0.9435048874830925"></circle><circle r="4.676355087772027" cx="602.5169661141423" cy="261.7259050328623" opacity="0.2833485844607372"></circle><circle r="8.12454187912796" cx="152.8272359457205" cy="103.6194172951555" opacity="0.7632412684306067"></circle><circle r="8.201164461563977" cx="61.48881070839125" cy="80.39109651889626" opacity="0.503055573199301"></circle><circle r="9.942335623509885" cx="381.49920390346097" cy="501.84739009932275" opacity="0.5310748959813127"></circle><circle r="7.84903396748941" cx="702.8452853152475" cy="165.87398757460645" opacity="0.5405458561112924"></circle><circle r="3.135962679197421" cx="213.12398339952895" cy="661.0559396159692" opacity="0.5808845713864053"></circle><circle r="10.994898090834907" cx="556.855164889882" cy="304.0656978268382" opacity="0.6209736550774655"></circle><circle r="5.218994032180347" cx="157.83708416860563" cy="172.99971734781124" opacity="0.8481479917752877"></circle><circle r="3.7270929042515197" cx="17.140206580967227" cy="787.5095793832015" opacity="0.6112888887591675"></circle><circle r="6.738755486287866" cx="486.87183696663476" cy="529.244309865395" opacity="0.5729637997310201"></circle><circle r="13.89999777368793" cx="476.906479217304" cy="672.087963671356" opacity="0.5683960680515732"></circle><circle r="4.376441187047992" cx="330.1075752405269" cy="212.42757099897446" opacity="0.3941358048665101"></circle><circle r="6.693095414898998" cx="569.5101295039731" cy="432.64969639343326" opacity="0.28647651255254614"></circle><circle r="5.7055635655512145" cx="667.5252079156685" cy="166.2278160716036" opacity="0.7326642841933247"></circle><circle r="5.46642341843747" cx="272.327437326978" cy="13.155934125573012" opacity="0.5257286250853653"></circle><circle r="8.334890751371391" cx="425.2235985747247" cy="268.22232422114945" opacity="0.670165559890933"></circle><circle r="8.789737788759725" cx="713.6935917185615" cy="732.1805151514128" opacity="0.6715514594987406"></circle><circle r="7.607055818826664" cx="352.9358158708612" cy="253.5141032516321" opacity="0.8549101130316245"></circle><circle r="7.416249345580113" cx="15.853387278112828" cy="29.31017725212828" opacity="0.3716096946064531"></circle><circle r="6.281357833371215" cx="460.77688853014735" cy="268.2355575767387" opacity="0.14040221391995283"></circle><circle r="4.0225835836104284" cx="245.8076230173722" cy="39.06215721771566" opacity="0.5981456232838787"></circle><circle r="6.261219742405108" cx="350.42983337518336" cy="189.51138887174417" opacity="0.4446297875519023"></circle><circle r="6.558607937178577" cx="331.0855211020637" cy="96.41800924852377" opacity="0.10963949388346106"></circle><circle r="6.393283366310662" cx="180.0485486459106" cy="362.0340726523277" opacity="0.2061136301013432"></circle><circle r="5.472007377523852" cx="782.2476685310063" cy="172.16005289091223" opacity="0.5612078518405926"></circle><circle r="8.318070852069523" cx="352.0663587459778" cy="543.3572996277678" opacity="0.8987532489857114"></circle><circle r="6.902505966723865" cx="640.1138923020222" cy="479.05432794339083" opacity="0.30434760485679113"></circle><circle r="7.928314698726441" cx="524.6533276217734" cy="697.0827357385891" opacity="0.8929194789924032"></circle><circle r="8.268125443106067" cx="86.3979093374202" cy="748.3168294044094" opacity="0.46713986806073426"></circle><circle r="8.093418407476276" cx="65.76427347106015" cy="581.4076646977735" opacity="0.39701541749465175"></circle><circle r="5.1606110740558275" cx="299.4082832643714" cy="657.0025480740995" opacity="0.6387547140020939"></circle><circle r="7.877039917967988" cx="457.31053259590516" cy="491.3713595007018" opacity="0.9091583661158485"></circle><circle r="4.834010341609361" cx="607.9191115247219" cy="29.29656363496974" opacity="0.5898601250625716"></circle><circle r="4.260836833805403" cx="755.7707881848637" cy="694.1345407374112" opacity="0.4601144239537057"></circle><circle r="6.336991385962126" cx="528.9829192395714" cy="476.4833547425953" opacity="0.594548062324337"></circle><circle r="9.57672562526987" cx="739.1733142516754" cy="185.94840543643997" opacity="0.9497726098576503"></circle><circle r="7.991114197982917" cx="538.9171676754258" cy="258.9225428932172" opacity="0.1821923956063414"></circle><circle r="9.892571372978825" cx="755.1397778662231" cy="464.45675197841666" opacity="0.6372405575140149"></circle><circle r="7.789449438552585" cx="327.7412226545735" cy="22.815574924480433" opacity="0.13084211374837487"></circle><circle r="11.201209476741528" cx="397.9103727899317" cy="236.2884219224898" opacity="0.5477771156366052"></circle><circle r="8.145104617091686" cx="715.5468222342241" cy="366.43321398033686" opacity="0.9004589006620138"></circle><circle r="11.04159881128464" cx="76.99085884550956" cy="298.2297052808029" opacity="0.5777251501788633"></circle><circle r="4.491798764120151" cx="430.76223281638585" cy="424.20257263551287" opacity="0.14734931048731825"></circle><circle r="9.322671438814346" cx="727.5919871031239" cy="504.7144515988307" opacity="0.45367991574239364"></circle><circle r="9.230173578018404" cx="153.40930994688415" cy="769.6751128884006" opacity="0.6738847353748769"></circle><circle r="6.2237048821981125" cx="638.2727425095542" cy="269.95107040948557" opacity="0.7031877679211957"></circle><circle r="4.946556539902638" cx="299.7607234771586" cy="133.7820224265575" opacity="0.9338087154107605"></circle><circle r="5.146034446797586" cx="657.1330935279376" cy="631.7510886976204" opacity="0.9935350650736903"></circle><circle r="5.25122052429343" cx="448.3173561958017" cy="232.41847168655414" opacity="0.2827746605116106"></circle><circle r="4.549522313376049" cx="470.3466336980956" cy="299.78124597494764" opacity="0.11346287811891129"></circle><circle r="8.252607301119546" cx="593.5236363346538" cy="211.17701034462223" opacity="0.788783732013793"></circle><circle r="5.2679535063285545" cx="569.3143545313959" cy="36.568699598017375" opacity="0.5840645342258382"></circle><circle r="8.362262131412447" cx="675.0111569469265" cy="708.3156637787004" opacity="0.1051679985885619"></circle><circle r="5.038426824802736" cx="203.54134379852783" cy="122.60668404742793" opacity="0.6693317265900144"></circle><circle r="5.560077616725949" cx="497.78191952998594" cy="336.1689578388875" opacity="0.7608514353441943"></circle><circle r="5.779521676163682" cx="429.23352835564873" cy="187.7599757705723" opacity="0.7482466972887751"></circle><circle r="9.144149307043882" cx="435.61254481311784" cy="65.50924215863066" opacity="0.812367201751604"></circle><circle r="7.126578321551137" cx="38.37032387336604" cy="57.27241614145445" opacity="0.9975983080985295"></circle><circle r="8.281233159551252" cx="336.17977656830567" cy="372.60448978046395" opacity="0.7432540494649215"></circle><circle r="6.16371028112054" cx="20.85945570094937" cy="404.489273288585" opacity="0.5018155519442905"></circle><circle r="4.647559565357447" cx="783.3240820438392" cy="521.4233365066498" opacity="0.16551832060540936"></circle><circle r="5.75306756512113" cx="81.05780317423469" cy="114.54090182259695" opacity="0.86835887231846"></circle><circle r="9.381720195153342" cx="657.4283952556085" cy="576.5620199468286" opacity="0.5261774005286418"></circle><circle r="10.488394250645733" cx="161.10284102371529" cy="481.67952556057287" opacity="0.9173884524585226"></circle><circle r="10.557531171553872" cx="691.907541580119" cy="468.66777878500716" opacity="0.864339574653262"></circle><circle r="5.610706701359776" cx="233.24061058386974" cy="304.485581207559" opacity="0.7642776777655477"></circle><circle r="6.823194954069148" cx="393.41364303021425" cy="681.5342978369516" opacity="0.9545554861467128"></circle><circle r="4.7665071207028" cx="686.6280787652705" cy="606.3137534184198" opacity="0.6370409133964645"></circle><circle r="6.362256404184691" cx="715.2761282195888" cy="257.17501751918365" opacity="0.8097238158770989"></circle><circle r="9.259571521873557" cx="104.21745266802965" cy="81.61077637436455" opacity="0.2729150094523155"></circle><circle r="6.398819957826761" cx="281.8167961555881" cy="313.2727346151939" opacity="0.6489254218753351"></circle><circle r="5.97779474469865" cx="423.46925261066485" cy="644.6956865420619" opacity="0.7721087593838365"></circle><circle r="3.795727677286646" cx="275.83312231606425" cy="97.27196059529047" opacity="0.9953442409768426"></circle><circle r="8.504637916846526" cx="207.0047623358869" cy="321.2856924285846" opacity="0.11752380650482691"></circle><circle r="5.789060324840016" cx="229.00410692852097" cy="108.60375254783128" opacity="0.7972801565765802"></circle><circle r="9.847419799161225" cx="459.26580128259377" cy="120.581749391726" opacity="0.4394948130839019"></circle><circle r="9.940583106055454" cx="203.18903627871794" cy="714.9549772395076" opacity="0.13508894492529094"></circle><circle r="9.183015158227882" cx="772.9034590200166" cy="267.43433419043885" opacity="0.965589495876042"></circle><circle r="7.2951279155115785" cx="285.51346336042263" cy="487.0874342098821" opacity="0.8113170399572318"></circle><circle r="4.989557810817753" cx="116.67191708560863" cy="569.2889531358865" opacity="0.1415463829801015"></circle><circle r="5.515471057629423" cx="611.6194259623388" cy="289.7974231458563" opacity="0.5956205491551259"></circle><circle r="4.698160590693886" cx="317.7320061768213" cy="559.352401172878" opacity="0.6432591861878426"></circle><circle r="4.492212659862192" cx="8.967180101162889" cy="755.8313750226469" opacity="0.3226062225638825"></circle><circle r="3.9244832039092516" cx="102.37160468926234" cy="542.6345179738813" opacity="0.5582725379827086"></circle><circle r="7.038708917507046" cx="251.40143407926237" cy="353.04859159916185" opacity="0.3523995499233068"></circle><circle r="12.028268343902912" cx="445.3161582094871" cy="720.5710261466412" opacity="0.9949090672311595"></circle><circle r="8.266464369222131" cx="670.9525673081204" cy="248.80803376035595" opacity="0.9426579994254644"></circle><circle r="4.690123011934898" cx="680.7508781203684" cy="319.771882250786" opacity="0.758434008644983"></circle><circle r="6.942302141743988" cx="646.6130446571392" cy="326.673914667347" opacity="0.36299237044793786"></circle><circle r="4.620846280576113" cx="258.77743978747645" cy="297.90398976723236" opacity="0.756142043864933"></circle><circle r="4.347525552421659" cx="249.17997877758484" cy="119.81203824291568" opacity="0.8918974480706451"></circle><circle r="8.345326544125783" cx="501.84912166487896" cy="158.7389813913761" opacity="0.3644331244595851"></circle><circle r="7.0280440324561075" cx="746.1661587956685" cy="544.880989924236" opacity="0.7742091133673418"></circle><circle r="8.473338117149769" cx="608.7909511126442" cy="497.9961962491935" opacity="0.5288791747688938"></circle><circle r="9.834767771733468" cx="648.9766530599064" cy="672.7470925316181" opacity="0.9824427688486648"></circle><circle r="10.573077784476371" cx="378.9855074051206" cy="340.10398257408593" opacity="0.7611569382808462"></circle><circle r="8.739285479650817" cx="509.4873980413101" cy="293.2167373071296" opacity="0.22138252618175058"></circle><circle r="5.280074619005513" cx="715.565782260223" cy="578.6788871258161" opacity="0.3215779398904558"></circle><circle r="12.271265427270396" cx="360.90566394374" cy="775.2373189254032" opacity="0.11255451875036245"></circle><circle r="6.259067242584488" cx="352.7828112671554" cy="478.14197707930884" opacity="0.2938900208356138"></circle><circle r="4.886795795000619" cx="311.67995585405424" cy="619.983190765422" opacity="0.6660215659266492"></circle><circle r="6.4942184785781585" cx="171.2964970303426" cy="262.86650312390003" opacity="0.6635094557395573"></circle><circle r="7.668359295671674" cx="172.33672220699103" cy="137.93338875425985" opacity="0.8388109495975309"></circle><circle r="5.180879290879771" cx="745.9049787905287" cy="324.2587712677928" opacity="0.18773336324192597"></circle><circle r="9.178223393823318" cx="94.21344330985153" cy="418.45863216360414" opacity="0.4575014337068065"></circle><circle r="5.478304394862713" cx="158.67398842006824" cy="663.2656420410676" opacity="0.14288128625978264"></circle><circle r="6.653824887229568" cx="416.3159393524657" cy="478.266003704132" opacity="0.3914700017742401"></circle><circle r="7.569907571940675" cx="323.5890994196275" cy="688.3147434267323" opacity="0.5938454869160384"></circle><circle r="5.733876059029757" cx="683.3171191419261" cy="20.288314470568285" opacity="0.8954315404424336"></circle><circle r="8.319174506695445" cx="297.2692949710136" cy="177.21983277501946" opacity="0.36394849410880514"></circle><circle r="6.133055257750574" cx="200.63492101230773" cy="461.15103865045995" opacity="0.45888864443781285"></circle><circle r="5.249098208986361" cx="306.41797972113267" cy="70.71457079713149" opacity="0.608262653154725"></circle><circle r="5.83280373330706" cx="49.81730620120131" cy="352.43940822571597" opacity="0.9868567705712469"></circle><circle r="4.517912833257" cx="259.55772196217487" cy="77.38156358742073" opacity="0.9844833550417905"></circle><circle r="9.116577913476332" cx="698.97161401616" cy="212.09426412255468" opacity="0.26991702788188976"></circle><circle r="8.6976805642155" cx="175.85347058892233" cy="542.5526713373204" opacity="0.8200625985590039"></circle><circle r="8.665673596145833" cx="694.6526057337073" cy="671.1726115783683" opacity="0.6838508080646225"></circle><circle r="8.243520475717606" cx="666.256225811176" cy="285.5420655954792" opacity="0.7582167438097397"></circle><circle r="7.688302632702083" cx="195.7212064537128" cy="228.7809389169693" opacity="0.6386789284880703"></circle><circle r="8.338849660866547" cx="673.4246430730707" cy="533.4508206641201" opacity="0.6133278594525995"></circle><circle r="8.739684084130188" cx="358.46030545788113" cy="58.859938672220224" opacity="0.5350480438561912"></circle><circle r="5.569287959874243" cx="125.66814328757609" cy="134.64610937461816" opacity="0.5751669350672071"></circle><circle r="6.975138637833808" cx="55.403432832822766" cy="150.8733413073279" opacity="0.7818974265031542"></circle><circle r="7.357822333604116" cx="781.0513825730434" cy="651.9232919633939" opacity="0.8659539964139533"></circle><circle r="5.066682732659956" cx="126.15101129239534" cy="302.458758545854" opacity="0.6572814413673116"></circle><circle r="5.637969982560393" cx="392.88138028228605" cy="553.9321216222203" opacity="0.15375730485188627"></circle><circle r="5.754950053243883" cx="706.2622570687802" cy="633.264134651533" opacity="0.34784549610617305"></circle><circle r="6.837090060809322" cx="63.79812388874584" cy="494.97710584299966" opacity="0.4764355249151748"></circle><circle r="6.4885839730331325" cx="778.5376270049541" cy="427.9927388217984" opacity="0.8076186797460718"></circle><circle r="7.167150415612337" cx="19.953653035027248" cy="488.2470556239184" opacity="0.9819974370928549"></circle><circle r="9.523595404871678" cx="656.7737678458996" cy="119.84015953122342" opacity="0.398492642271834"></circle><circle r="5.020569655276955" cx="98.04918114623761" cy="204.87813102604255" opacity="0.7118339562063075"></circle><circle r="4.066986583406427" cx="119.72358582157135" cy="226.48897697553437" opacity="0.7028803109566306"></circle><circle r="7.082684102029198" cx="552.9750781910141" cy="164.59562111521458" opacity="0.16341961589722512"></circle><circle r="6.076277884778947" cx="255.74518983069356" cy="263.71378251609633" opacity="0.944256359776683"></circle><circle r="4.901453629051359" cx="173.90779272454543" cy="302.20377387963464" opacity="0.5234917944816343"></circle><circle r="6.980128678472605" cx="140.97941861851817" cy="530.0815705683783" opacity="0.3797750284490313"></circle><circle r="10.470839165136619" cx="545.4965070730608" cy="357.0945108789395" opacity="0.17259994668182374"></circle><circle r="4.023123186419375" cx="129.12938115289373" cy="499.2365752880323" opacity="0.27863086980955837"></circle><circle r="9.694701890575935" cx="726.1063928957036" cy="72.54692960279996" opacity="0.9694013463660348"></circle><circle r="7.827423639055703" cx="387.9365297394458" cy="185.09872712737834" opacity="0.40659301637607015"></circle><circle r="13.382491384819936" cx="207.36330936172152" cy="770.4483632057174" opacity="0.11155048289176747"></circle><circle r="5.246798402735078" cx="223.72149229990964" cy="410.6653105848889" opacity="0.8633123833067662"></circle><circle r="6.529348574747658" cx="627.2376221525672" cy="775.0461709972844" opacity="0.5099204781575518"></circle><circle r="6.150013641242605" cx="331.7168068139048" cy="137.95718102350824" opacity="0.8144088436497996"></circle><circle r="5.894373127246765" cx="534.2528190581173" cy="750.0683134915176" opacity="0.5603322768778853"></circle><circle r="7.2251369759237" cx="751.9564192670784" cy="592.1896414055855" opacity="0.756568635519124"></circle><circle r="8.881925980416701" cx="474.9801526301423" cy="581.8567579546618" opacity="0.6946980781566693"></circle><circle r="6.111833899672698" cx="22.820686818879636" cy="728.0898404516597" opacity="0.9809534491132244"></circle><circle r="6.894451929121068" cx="541.9998486358984" cy="210.63982706925066" opacity="0.4729513180686379"></circle><circle r="9.927552424600744" cx="500.48229902241223" cy="87.98076423328398" opacity="0.5438073035221811"></circle><circle r="9.304775891368722" cx="93.16796995403446" cy="155.08945259950536" opacity="0.36570668249838256"></circle><circle r="6.250918864352654" cx="648.6677573022292" cy="430.33370891804344" opacity="0.6747086242354834"></circle><circle r="6.409859082018817" cx="262.69549528498584" cy="196.9714227336777" opacity="0.8936156565051325"></circle><circle r="7.289077540231679" cx="637.9599379712272" cy="17.34013516089013" opacity="0.24066085147472155"></circle><circle r="7.057137841622369" cx="56.720140508996764" cy="781.4271170407445" opacity="0.902807672504207"></circle><circle r="5.66278759165216" cx="746.1424591085721" cy="781.3695132520002" opacity="0.830713865024083"></circle><circle r="5.240999920477332" cx="305.9680048230012" cy="266.4909875621759" opacity="0.6290742695910807"></circle><circle r="6.775760985604238" cx="218.96981388695892" cy="512.9349387920237" opacity="0.19627341361007006"></circle><circle r="5.199404499217274" cx="494.3522773472991" cy="447.51533815072713" opacity="0.36921398017946916"></circle><circle r="10.686692933722856" cx="625.8106009436001" cy="370.15457286573144" opacity="0.2106820107044084"></circle><circle r="7.390074324817089" cx="154.4677167070869" cy="425.11982457995254" opacity="0.5317934490831052"></circle><circle r="10.239160486637232" cx="614.1220473087773" cy="603.8545351733745" opacity="0.5237536861031454"></circle><circle r="9.989823572819768" cx="696.4976149081906" cy="107.04471674409429" opacity="0.6878086999204743"></circle><circle r="4.114582953248692" cx="295.64224442618377" cy="582.0818148420377" opacity="0.5220565063065402"></circle><circle r="8.676470207360593" cx="578.9627109391981" cy="770.0184853521991" opacity="0.7534464699767551"></circle><circle r="5.569105312480243" cx="107.56770535609255" cy="782.6010195233841" opacity="0.3192151265899728"></circle><circle r="5.350893891055383" cx="234.5476728360615" cy="220.63864084027142" opacity="0.8620942358395952"></circle><circle r="7.771670874034713" cx="529.5370111467406" cy="394.1042184996107" opacity="0.41640851602876994"></circle><circle r="5.044204809140881" cx="47.148628559349405" cy="553.8039479968543" opacity="0.9653374539950266"></circle><circle r="2.6822936491428475" cx="583.5281245229841" cy="8.127345941496754" opacity="0.33370022425644097"></circle><circle r="5.189457605140051" cx="391.95867163061735" cy="21.729159144142766" opacity="0.9497105305391735"></circle><circle r="9.36161337071617" cx="158.40574120362743" cy="215.39494842076087" opacity="0.12635821228275276"></circle><circle r="8.210160338854736" cx="254.96617100586386" cy="156.2660131320867" opacity="0.623586252552119"></circle><circle r="4.690328648127998" cx="298.2948463115929" cy="26.96941348727177" opacity="0.4618422107636806"></circle><circle r="5.836121856782768" cx="64.00927871909063" cy="666.6903947060388" opacity="0.10726045848644239"></circle><circle r="6.24081286831856" cx="757.2834774253818" cy="370.8602670601553" opacity="0.6560111056744447"></circle><circle r="7.445041238700065" cx="594.5920961201824" cy="405.0423393772878" opacity="0.7970804551347692"></circle><circle r="8.232024097152822" cx="63.69085785222766" cy="19.720139181774606" opacity="0.30501438016097493"></circle><circle r="8.736962526302985" cx="103.17911443675855" cy="37.720321664127" opacity="0.10730638547112346"></circle><circle r="7.608021071512823" cx="24.114964088168826" cy="325.4358550903652" opacity="0.42739045753761096"></circle><circle r="5.837712055655825" cx="539.1641093715028" cy="448.3182476097762" opacity="0.21438665037729857"></circle><circle r="8.383010276693204" cx="373.1418948015542" cy="597.2140653471462" opacity="0.40608472266699347"></circle><circle r="9.257103189683608" cx="762.4036315937631" cy="739.4474003235027" opacity="0.41450358672040066"></circle><circle r="4.741498319980491" cx="269.1627882605211" cy="53.43886924386614" opacity="0.46381919334997557"></circle><circle r="7.31800650755393" cx="74.91202771708677" cy="621.842328252641" opacity="0.6367009109915537"></circle><circle r="4.0407405359761315" cx="705.9087339574237" cy="289.294598744589" opacity="0.30047930817307933"></circle><circle r="9.555976579429778" cx="22.1986579735756" cy="649.8606485676437" opacity="0.8342037334692786"></circle><circle r="6.982916760880833" cx="262.1392864288709" cy="731.8566300841969" opacity="0.5462430512882467"></circle><circle r="7.576959145869335" cx="407.654569558269" cy="92.34223562864277" opacity="0.7186004027115256"></circle><circle r="4.8999070399292926" cx="216.1637172788613" cy="371.951259088085" opacity="0.6646746114416315"></circle><circle r="10.699696239915749" cx="501.96428214031226" cy="612.9796445484012" opacity="0.5674060856582548"></circle><circle r="4.678762574716683" cx="434.17208086066194" cy="333.06060334873376" opacity="0.3084312322398675"></circle><circle r="5.25283758605804" cx="495.52804811425136" cy="421.9349207355076" opacity="0.22773733459115472"></circle><circle r="6.621186112574367" cx="574.6152553999996" cy="133.35738043643894" opacity="0.4633963776422977"></circle><circle r="4.7034155140989835" cx="265.8471613256216" cy="644.0253802164605" opacity="0.855548659135859"></circle><circle r="8.106033032609302" cx="243.63930904985423" cy="686.6736392851266" opacity="0.9120981636924855"></circle><circle r="8.42233705403877" cx="613.1940453767278" cy="116.02853360533727" opacity="0.6816571871030449"></circle></g></svg>