<svg xmlns="http://www.w3.org/2000/svg" version="1.1" xmlns:xlink="http://www.w3.org/1999/xlink" xmlns:svgjs="http://svgjs.dev/svgjs" viewBox="0 0 800 800"><defs><filter id="ssspot-filter" x="-20%" y="-20%" width="140%" height="140%" filterUnits="objectBoundingBox" primitiveUnits="userSpaceOnUse" color-interpolation-filters="sRGB">
	<feTurbulence type="turbulence" baseFrequency="0.022 0.218" numOctaves="2" seed="154" stitchTiles="stitch" x="0%" y="0%" width="100%" height="100%" result="turbulence"></feTurbulence>
	<feGaussianBlur stdDeviation="0 3" x="0%" y="0%" width="100%" height="100%" in="turbulence" edgeMode="duplicate" result="blur"></feGaussianBlur>
	<feDisplacementMap in="SourceGraphic" in2="blur" scale="32" xChannelSelector="R" yChannelSelector="B" x="0%" y="0%" width="100%" height="100%" result="displacementMap"></feDisplacementMap>
</filter></defs><rect width="100%" height="100%" fill="#383d4a"></rect><g fill="#232730" filter="url(#ssspot-filter)"><circle class="spot" r="9.889566542225586" cx="23.691689592990215" cy="544.1952508437298" opacity="0.8014227477531443"></circle><circle class="spot" r="8.481086590457561" cx="741.9272192554623" cy="139.2883230662446" opacity="0.5743913501958499"></circle><circle class="spot" r="11.282754599986575" cx="164.00660304890562" cy="455.50306525705975" opacity="0.44354519677395765"></circle><circle class="spot" r="4.285789832111455" cx="19.409735753915896" cy="347.452707776258" opacity="0.3644841808100454"></circle><circle class="spot" r="5.111176308508137" cx="634.1878040763072" cy="265.84466038680995" opacity="0.4396151483379409"></circle><circle class="spot" r="4.915711631045506" cx="623.6785117739905" cy="14.228980730720666" opacity="0.5485274817199748"></circle><circle class="spot" r="7.94635830367098" cx="732.1995111458704" cy="48.18886922490739" opacity="0.7417800339804673"></circle><circle class="spot" r="6.733075107927503" cx="780.0079228746474" cy="430.0321687979859" opacity="0.4212450056112682"></circle><circle class="spot" r="7.690148676814827" cx="601.9612326428019" cy="74.26593501276463" opacity="0.514109564542217"></circle><circle class="spot" r="11.482749744349281" cx="556.7356976618706" cy="523.1404292382607" opacity="0.4512346956599299"></circle><circle class="spot" r="7.593358822550549" cx="551.9272817154666" cy="140.38116836310192" opacity="0.2624725731257034"></circle><circle class="spot" r="10.218620581380849" cx="381.384200768396" cy="79.81704151574523" opacity="0.7632245217143018"></circle><circle class="spot" r="6.876281851221525" cx="305.1549418694" cy="33.406074746866686" opacity="0.2392478918308429"></circle><circle class="spot" r="7.5861316622809465" cx="776.4515497614512" cy="310.77394944465607" opacity="0.13730950171856696"></circle><circle class="spot" r="5.986075196189792" cx="433.5233917368256" cy="173.51906417331597" opacity="0.5317121565556843"></circle><circle class="spot" r="6.443092472304126" cx="665.0279667681098" cy="481.1060090376139" opacity="0.9159730487127016"></circle><circle class="spot" r="7.046896001490872" cx="656.4480440768601" cy="449.1780483912434" opacity="0.9516868311343294"></circle><circle class="spot" r="5.8743659726997794" cx="643.8517856899961" cy="650.1012510876106" opacity="0.9071587570963416"></circle><circle class="spot" r="10.881811969027067" cx="346.50027776407103" cy="35.057458253071474" opacity="0.4898991282143682"></circle><circle class="spot" r="8.537086511851356" cx="202.2034218368304" cy="781.5311555742377" opacity="0.5064584532004434"></circle><circle class="spot" r="7.503592494323927" cx="772.2763994981996" cy="466.82727915309323" opacity="0.7431019900725157"></circle><circle class="spot" r="8.577975906125673" cx="107.18750580940686" cy="765.42209049385" opacity="0.7176198766861471"></circle><circle class="spot" r="7.3989784643642125" cx="628.2510477554407" cy="689.9510047860933" opacity="0.3721676501757111"></circle><circle class="spot" r="8.079172113338904" cx="119.33724953873592" cy="195.2845372870859" opacity="0.48257408460815643"></circle><circle class="spot" r="6.214969096168394" cx="271.310980757357" cy="740.1365077288286" opacity="0.4401719471234601"></circle><circle class="spot" r="10.159302960038662" cx="421.8496048059169" cy="774.9239765911417" opacity="0.28269846908167084"></circle><circle class="spot" r="8.928573661599533" cx="388.5907858685583" cy="552.6296610784583" opacity="0.9238248607132413"></circle><circle class="spot" r="6.154380657185685" cx="675.4653659413788" cy="410.32568670558106" opacity="0.6684965619984592"></circle><circle class="spot" r="6.4018886701706545" cx="526.6342038925269" cy="199.39707820786958" opacity="0.3492574750210742"></circle><circle class="spot" r="14.513895111570864" cx="449.97049437987283" cy="29.181959562814377" opacity="0.5027458102369435"></circle><circle class="spot" r="7.128039010465285" cx="221.1371744720836" cy="17.911323062645273" opacity="0.8848203954462078"></circle><circle class="spot" r="5.950203782626497" cx="745.9982452747807" cy="728.6033639268719" opacity="0.4587989179570445"></circle><circle class="spot" r="9.077437287277373" cx="578.6061703837589" cy="770.7621187121922" opacity="0.5661408182567115"></circle><circle class="spot" r="5.317627724114256" cx="651.1327703759972" cy="315.85654150822955" opacity="0.4009888265495489"></circle><circle class="spot" r="5.807898411658577" cx="687.9302629215412" cy="326.88401508760694" opacity="0.9279049237829281"></circle><circle class="spot" r="5.025741315060911" cx="474.48621454246916" cy="189.09145430258891" opacity="0.6747982807443441"></circle><circle class="spot" r="11.444812484844032" cx="287.748528623456" cy="416.38550600133397" opacity="0.5542213905013"></circle><circle class="spot" r="5.097920215236284" cx="789.070834139129" cy="564.5983378241569" opacity="0.6436288057026639"></circle><circle class="spot" r="8.130248640159316" cx="534.054337627524" cy="698.4272827548863" opacity="0.49776462665697097"></circle><circle class="spot" r="4.710937468743328" cx="479.27015149494804" cy="358.0201766951187" opacity="0.14399961763012065"></circle><circle class="spot" r="7.726576809161021" cx="148.44866851085962" cy="505.8058618089865" opacity="0.9204881414660363"></circle><circle class="spot" r="3.6722966758428153" cx="493.5704486817685" cy="384.03184826694184" opacity="0.7541963076251496"></circle><circle class="spot" r="10.136198395697683" cx="154.9455681704303" cy="280.34385696840104" opacity="0.5178919944290562"></circle><circle class="spot" r="5.644136404052263" cx="18.01556295070776" cy="98.10436020893951" opacity="0.9148489937351555"></circle><circle class="spot" r="7.667609238456624" cx="781.3354508153293" cy="731.7885388665592" opacity="0.9852862286388617"></circle><circle class="spot" r="7.920524068951148" cx="251.0250380812136" cy="486.29216244544614" opacity="0.15039798638463087"></circle><circle class="spot" r="5.508679309427796" cx="367.8337331178128" cy="609.4906900508892" opacity="0.2811465396742826"></circle><circle class="spot" r="6.424056154507739" cx="602.6202762946359" cy="414.8057802492848" opacity="0.8796248283750897"></circle><circle class="spot" r="5.003356579310395" cx="156.7211989793652" cy="409.28120322308104" opacity="0.2494618335053758"></circle><circle class="spot" r="4.925303071734502" cx="542.7599587690883" cy="279.60427994787625" opacity="0.2087539845741438"></circle><circle class="spot" r="8.801698818636037" cx="268.1510264316509" cy="301.6407481338053" opacity="0.13889957205750125"></circle><circle class="spot" r="7.4894075561811615" cx="651.1525800930349" cy="74.94663121074603" opacity="0.923234118880261"></circle><circle class="spot" r="8.020684935079935" cx="23.368347868338365" cy="596.9547690696121" opacity="0.37652055802029283"></circle><circle class="spot" r="8.206238881984886" cx="221.28673730665932" cy="93.76479390824088" opacity="0.28590136608436395"></circle><circle class="spot" r="8.772780646845636" cx="563.434430571146" cy="419.785031110831" opacity="0.7190150901573596"></circle><circle class="spot" r="4.308922403785157" cx="485.32583108585555" cy="243.84024553065603" opacity="0.8580323245767147"></circle><circle class="spot" r="9.92744324603731" cx="507.24024594954307" cy="543.2024465691397" opacity="0.378660383356602"></circle><circle class="spot" r="9.008147189092753" cx="780.7831060522338" cy="502.24220915821166" opacity="0.23533042807240287"></circle><circle class="spot" r="9.12816628412136" cx="599.2907392712884" cy="471.5537383016611" opacity="0.5507233732770658"></circle><circle class="spot" r="5.864282835801846" cx="231.47278634184778" cy="329.87327398552566" opacity="0.5754945531349813"></circle><circle class="spot" r="9.558787148094119" cx="458.7315296819227" cy="328.97626642490684" opacity="0.45245029567411943"></circle><circle class="spot" r="5.467733653726278" cx="743.4051260524253" cy="367.23523175264535" opacity="0.4426084415647751"></circle><circle class="spot" r="7.288190147153131" cx="424.8655116761642" cy="363.1660149498616" opacity="0.26789397106159984"></circle><circle class="spot" r="9.591185426143685" cx="591.3933211111629" cy="556.1370183122618" opacity="0.8544455451485437"></circle><circle class="spot" r="6.06290644668402" cx="668.3755418475695" cy="286.94543424306187" opacity="0.8842933376152645"></circle><circle class="spot" r="7.0341678899477404" cx="451.0966785314809" cy="543.5897807633128" opacity="0.4540495376044579"></circle><circle class="spot" r="7.735944973851543" cx="161.26852751353712" cy="167.75620246354535" opacity="0.17686747911610146"></circle><circle class="spot" r="7.133268257512645" cx="731.7134991438278" cy="443.95013486702663" opacity="0.5500172249792014"></circle><circle class="spot" r="6.976893487714046" cx="341.8485645616629" cy="423.3653584701125" opacity="0.4944406339020191"></circle><circle class="spot" r="5.1226502227841415" cx="549.6036450791697" cy="246.04746395266707" opacity="0.9164790166476072"></circle><circle class="spot" r="4.014892015925045" cx="763.8063276433135" cy="688.0738554235916" opacity="0.16997706481162767"></circle><circle class="spot" r="10.869150867228264" cx="407.90288649582334" cy="623.2212787003895" opacity="0.49299156771942954"></circle><circle class="spot" r="5.479498735714811" cx="575.7949933001544" cy="691.162744135987" opacity="0.9783145383684291"></circle><circle class="spot" r="4.839502552777645" cx="704.994620188308" cy="674.1345924331724" opacity="0.35562365028083476"></circle><circle class="spot" r="6.962701621641337" cx="113.79145948696467" cy="310.1876286490907" opacity="0.6348399285687544"></circle><circle class="spot" r="7.0686311463934395" cx="704.5335323493936" cy="528.5511726663952" opacity="0.335752996564704"></circle><circle class="spot" r="8.651285580103728" cx="781.9853496500035" cy="172.29242737998229" opacity="0.6261251863210764"></circle><circle class="spot" r="9.082210279471056" cx="570.2475541416353" cy="372.6877638201218" opacity="0.16700371705010256"></circle><circle class="spot" r="7.832258914346851" cx="721.3474197057114" cy="340.5884973996917" opacity="0.36678138854676445"></circle><circle class="spot" r="6.379003927403191" cx="785.1348292655098" cy="126.3140678420254" opacity="0.22001174256193318"></circle><circle class="spot" r="10.063831232577023" cx="293.0953042261095" cy="145.71363136706665" opacity="0.1446678894254802"></circle><circle class="spot" r="9.336700804933095" cx="382.1664444714401" cy="176.88599764979818" opacity="0.20794613420563057"></circle><circle class="spot" r="4.7574603112352225" cx="275.9979260216197" cy="620.5063156209727" opacity="0.6623954917566077"></circle><circle class="spot" r="5.197156047309916" cx="597.6912384920931" cy="204.26280533468002" opacity="0.9766272407466423"></circle><circle class="spot" r="10.062792724561145" cx="688.0297541091652" cy="249.33322310497928" opacity="0.7823677059924591"></circle><circle class="spot" r="10.383977895843252" cx="671.3003458500441" cy="778.1714395244144" opacity="0.6332730238445122"></circle><circle class="spot" r="7.016085955867266" cx="331.9946124828797" cy="134.04246962320858" opacity="0.4405175020944112"></circle><circle class="spot" r="6.667453174049418" cx="508.4270329169114" cy="466.86894820764485" opacity="0.23644839685948502"></circle><circle class="spot" r="3.6854227673860676" cx="503.61834213858754" cy="12.914423809721292" opacity="0.8031800891900616"></circle><circle class="spot" r="5.6332860333411015" cx="265.1628848730105" cy="24.911238936424674" opacity="0.5636005680333699"></circle><circle class="spot" r="7.3599743509261675" cx="324.77687852974003" cy="453.63577079533053" opacity="0.1670097135891589"></circle><circle class="spot" r="8.507859556990706" cx="611.3283414476884" cy="615.2796842226691" opacity="0.1871115353164598"></circle><circle class="spot" r="4.806240497859834" cx="691.1495312676507" cy="59.02227089350861" opacity="0.6681376828520571"></circle><circle class="spot" r="8.36488957724833" cx="539.2563846008811" cy="63.56512041604166" opacity="0.4432572499269586"></circle><circle class="spot" r="5.8147524810107605" cx="393.29029232003535" cy="23.22761302724997" opacity="0.7611814726604065"></circle><circle class="spot" r="5.344096932143962" cx="12.060595439365738" cy="318.03535630754254" opacity="0.8798802186788554"></circle><circle class="spot" r="4.709925676527217" cx="788.1308917860057" cy="683.1896601344416" opacity="0.5766770366176257"></circle><circle class="spot" r="6.232121739608126" cx="55.797669356621654" cy="341.37074673104297" opacity="0.9439479735263656"></circle><circle class="spot" r="8.738092919563162" cx="388.02888703352494" cy="391.1972816694317" opacity="0.1219633348554314"></circle><circle class="spot" r="8.736487988159487" cx="73.5820001029126" cy="186.50112288827754" opacity="0.73909496522798"></circle><circle class="spot" r="8.053463119618481" cx="723.2173251925959" cy="288.93816670969295" opacity="0.6027312697945866"></circle><circle class="spot" r="6.951377117589483" cx="306.97726122345176" cy="672.9993719589393" opacity="0.7748930848329763"></circle><circle class="spot" r="7.376817810007312" cx="619.6060978613789" cy="776.039872754031" opacity="0.3110889306784659"></circle><circle class="spot" r="5.815338813688701" cx="719.8301187181899" cy="96.78348446639846" opacity="0.9927567990927307"></circle><circle class="spot" r="8.293246578259595" cx="598.3933688138947" cy="241.96671415983562" opacity="0.5891651998269136"></circle><circle class="spot" r="7.6934549007980255" cx="505.95240135536733" cy="642.7209055440477" opacity="0.7049529983016526"></circle><circle class="spot" r="6.977730009740831" cx="264.09104885198775" cy="265.60023625600263" opacity="0.7325166919988771"></circle><circle class="spot" r="5.653832910300414" cx="682.8479569369737" cy="372.78831617918974" opacity="0.3411286949258887"></circle><circle class="spot" r="8.03584271905541" cx="683.7412745860751" cy="633.55711075234" opacity="0.867511849086367"></circle><circle class="spot" r="7.5538319653891595" cx="335.74403692110513" cy="553.0408437083693" opacity="0.41244633284952814"></circle><circle class="spot" r="7.19388161227359" cx="52.44753752250575" cy="385.394403652327" opacity="0.8158274727247329"></circle><circle class="spot" r="8.69787810896343" cx="210.26192110156396" cy="731.1454878768764" opacity="0.6366821276390293"></circle><circle class="spot" r="5.611512356075113" cx="548.7874442872777" cy="341.6408775398131" opacity="0.7435532417116186"></circle><circle class="spot" r="6.443404471452927" cx="309.32926111482504" cy="256.7254135939574" opacity="0.22240247221112347"></circle><circle class="spot" r="7.029448382952689" cx="721.6379894431428" cy="647.180268246587" opacity="0.6419401848110272"></circle><circle class="spot" r="5.391913708120852" cx="445.96960961514554" cy="502.6503738293892" opacity="0.6604777800612677"></circle><circle class="spot" r="4.9882821852262085" cx="195.21020737273284" cy="353.0600462036522" opacity="0.6843411258325732"></circle><circle class="spot" r="12.271577286993086" cx="184.50311574568983" cy="679.7818042953822" opacity="0.6650838621655639"></circle><circle class="spot" r="8.982040664062023" cx="538.9562661411611" cy="589.7771905045805" opacity="0.2735014183837002"></circle><circle class="spot" r="4.474896938818889" cx="360.86644085081946" cy="664.4389971642092" opacity="0.9512929110763363"></circle><circle class="spot" r="5.216130987190693" cx="702.4201153947369" cy="558.9448947653807" opacity="0.9461740606025503"></circle><circle class="spot" r="11.081401717983365" cx="264.0705498930271" cy="540.5871905066316" opacity="0.7346761806260228"></circle><circle class="spot" r="6.43902943390226" cx="324.33567698460865" cy="186.02009233611597" opacity="0.7207703972770633"></circle><circle class="spot" r="6.939690474655237" cx="552.508606683578" cy="468.4462421993905" opacity="0.39790338891615273"></circle><circle class="spot" r="5.655108699030098" cx="219.128479949431" cy="57.67554092342412" opacity="0.7370246694900136"></circle><circle class="spot" r="3.8834330079037933" cx="726.7537080800902" cy="586.7629417913907" opacity="0.11383351519778616"></circle><circle class="spot" r="7.76221621185441" cx="694.799984181396" cy="169.1719570769349" opacity="0.13782699514625632"></circle><circle class="spot" r="7.169663073833467" cx="654.5687189090153" cy="739.5720770455753" opacity="0.26979452790993486"></circle><circle class="spot" r="6.234045815299453" cx="332.8656587834385" cy="599.5606844651448" opacity="0.5149385129676872"></circle><circle class="spot" r="11.18144007455566" cx="122.17870643321908" cy="674.8529153806686" opacity="0.6170240429892758"></circle><circle class="spot" r="6.940286628652997" cx="744.8056936030549" cy="525.3564911196677" opacity="0.4924192078208789"></circle><circle class="spot" r="7.933268924944569" cx="435.14846733690047" cy="582.6275534957447" opacity="0.5077372796788626"></circle><circle class="spot" r="4.363765711789439" cx="703.6275429219531" cy="719.6414598818332" opacity="0.8699288693304932"></circle><circle class="spot" r="7.015291349470031" cx="244.33780087272896" cy="368.4739799213662" opacity="0.7033471577303068"></circle><circle class="spot" r="5.64142735686194" cx="773.9800755313413" cy="592.2330438861293" opacity="0.73283965322527"></circle><circle class="spot" r="7.165517267994698" cx="252.44741078109524" cy="417.0178990121424" opacity="0.36318820047204015"></circle><circle class="spot" r="5.767245338166156" cx="664.4765552228669" cy="20.848213655197245" opacity="0.5597529840294933"></circle><circle class="spot" r="12.236554668718892" cx="476.7028876213296" cy="84.97624050166841" opacity="0.9056050444502196"></circle><circle class="spot" r="8.133812788207925" cx="357.824676909042" cy="220.92072445156106" opacity="0.16048742286492762"></circle><circle class="spot" r="7.237084589925164" cx="488.28308687023383" cy="782.1454107998029" opacity="0.13172642819438768"></circle><circle class="spot" r="8.331910657052111" cx="454.48451307154176" cy="129.17750637682636" opacity="0.5896303205071568"></circle><circle class="spot" r="7.806420496811332" cx="122.12532120725764" cy="359.73817575232965" opacity="0.19941016372850318"></circle><circle class="spot" r="6.454065739334425" cx="230.6119807802616" cy="702.2093712887474" opacity="0.2089880794100134"></circle><circle class="spot" r="5.558531812974901" cx="530.5491050884757" cy="668.4834418542483" opacity="0.6323788794767873"></circle><circle class="spot" r="8.548366248862669" cx="529.8303222442829" cy="386.73544825400745" opacity="0.8504765596945957"></circle><circle class="spot" r="7.228472719622372" cx="563.8356955707691" cy="222.11532998828773" opacity="0.3636673337268512"></circle><circle class="spot" r="7.35920193876162" cx="634.4392105861027" cy="147.32655155315243" opacity="0.8539797666235412"></circle><circle class="spot" r="3.3799115533436948" cx="786.5329200678289" cy="24.481750073884758" opacity="0.3053269731178829"></circle><circle class="spot" r="8.397901217998175" cx="167.99317451280933" cy="17.536698607816646" opacity="0.7191324025972604"></circle><circle class="spot" r="7.176926403173734" cx="664.3044283871081" cy="560.4730393747087" opacity="0.5819107293078872"></circle><circle class="spot" r="6.517434767839073" cx="504.91623248544465" cy="46.097635405338956" opacity="0.8803882796092204"></circle><circle class="spot" r="12.06930469854244" cx="345.94900359129275" cy="499.43956990759887" opacity="0.11062324010689449"></circle><circle class="spot" r="6.8023884010579" cx="785.6022599486078" cy="631.8881744984741" opacity="0.4342408728165974"></circle><circle class="spot" r="6.193138231243865" cx="745.1048700477652" cy="564.4299117320123" opacity="0.2270399571734827"></circle><circle class="spot" r="9.023972146955508" cx="703.0918941298906" cy="21.83214286639171" opacity="0.6710573308596882"></circle><circle class="spot" r="9.818542645664799" cx="521.22641307243" cy="428.81357919927484" opacity="0.48723334137076424"></circle><circle class="spot" r="7.278817022630042" cx="240.1353937716625" cy="752.5388697494012" opacity="0.28901949952722894"></circle><circle class="spot" r="5.889932492061341" cx="492.7807334836786" cy="582.9103898344744" opacity="0.24831106515068022"></circle><circle class="spot" r="7.836437507315457" cx="262.09975014625064" cy="79.16824457863252" opacity="0.28453736581577016"></circle><circle class="spot" r="6.268290211408255" cx="774.6647386271093" cy="345.6047885443218" opacity="0.30658086549910685"></circle><circle class="spot" r="9.133885126556217" cx="771.0199225138216" cy="776.460403342753" opacity="0.927208408203711"></circle><circle class="spot" r="4.960684871011084" cx="668.139712465028" cy="669.3607451972164" opacity="0.9488257721111658"></circle><circle class="spot" r="7.413138903827733" cx="719.5081737419134" cy="615.476916611956" opacity="0.9171618362696555"></circle><circle class="spot" r="8.79096457370282" cx="270.15428744134505" cy="782.1998248534857" opacity="0.6771661222578215"></circle><circle class="spot" r="8.641238152045565" cx="70.02535858242481" cy="542.1541540689692" opacity="0.387693135567279"></circle><circle class="spot" r="5.920424972478129" cx="262.6637969328463" cy="686.6926515042641" opacity="0.6163375234490629"></circle><circle class="spot" r="9.401471158247192" cx="114.5557742146868" cy="20.350309844582743" opacity="0.4515685778385464"></circle><circle class="spot" r="5.653774660014124" cx="542.4606333711229" cy="778.4294750829835" opacity="0.18406008231155965"></circle><circle class="spot" r="12.602240222834793" cx="172.2366085727374" cy="119.91953097812869" opacity="0.7468926462110312"></circle><circle class="spot" r="7.689937757757882" cx="41.8960022495768" cy="23.212902085208352" opacity="0.748209553870852"></circle><circle class="spot" r="8.624341730075283" cx="328.0654937354222" cy="777.5629491285171" opacity="0.4593829829380631"></circle><circle class="spot" r="6.499808529911157" cx="719.3421405181591" cy="781.9331998571417" opacity="0.7922998769701761"></circle><circle class="spot" r="9.510315185755225" cx="611.2265010353569" cy="309.4374839371058" opacity="0.9896484711265086"></circle><circle class="spot" r="7.340831119540921" cx="334.41888406041164" cy="638.5501129067738" opacity="0.26542855667434195"></circle><circle class="spot" r="7.452600482832146" cx="515.3146269824815" cy="157.92802071163982" opacity="0.1589452927500563"></circle><circle class="spot" r="8.315748541197213" cx="282.160602935349" cy="353.0430351992892" opacity="0.35398156775696976"></circle><circle class="spot" r="9.722203466194856" cx="364.55677767760506" cy="743.6884677399158" opacity="0.11794485579412174"></circle><circle class="spot" r="10.724036000548029" cx="611.3552832271093" cy="724.4242045154962" opacity="0.45897882719164107"></circle><circle class="spot" r="3.1163619988996016" cx="740.7714346308909" cy="11.263957252233316" opacity="0.579672854600354"></circle><circle class="spot" r="6.174571358645679" cx="766.1127856795835" cy="103.04536061338918" opacity="0.466797387968062"></circle><circle class="spot" r="8.761883893684809" cx="14.09994018188642" cy="260.65192952575364" opacity="0.38995264280498276"></circle><circle class="spot" r="8.05434912466701" cx="697.1193180163955" cy="133.14034254834047" opacity="0.2672145234539084"></circle><circle class="spot" r="8.906898928190211" cx="118.24839979334692" cy="608.894190505197" opacity="0.8533933567458174"></circle><circle class="spot" r="6.858641943436977" cx="158.74882680983256" cy="220.76200547254038" opacity="0.30189865069012883"></circle><circle class="spot" r="6.939785994533944" cx="229.22600093362175" cy="648.5762174739257" opacity="0.2995737771366339"></circle><circle class="spot" r="10.241678160151821" cx="301.18623596065765" cy="721.6406689058579" opacity="0.4812329038968072"></circle><circle class="spot" r="10.653371375822042" cx="455.1620444870846" cy="668.9376769307165" opacity="0.18284694590812606"></circle><circle class="spot" r="5.248508320501108" cx="761.7629128625546" cy="32.98783718307322" opacity="0.1095900844406665"></circle><circle class="spot" r="8.512043222741994" cx="555.6049550606597" cy="634.522120029819" opacity="0.2522599851179186"></circle><circle class="spot" r="9.837045432699098" cx="115.82129213491977" cy="467.80030619295906" opacity="0.9381348645028483"></circle><circle class="spot" r="13.4465295115075" cx="108.74933116815416" cy="251.88232947689025" opacity="0.9096811852484054"></circle><circle class="spot" r="5.444026406689842" cx="228.57077262426924" cy="237.78679008977895" opacity="0.3954332730199025"></circle><circle class="spot" r="10.15443532514859" cx="21.44618737367402" cy="466.0200598954735" opacity="0.42717442275611994"></circle><circle class="spot" r="14.896061724548106" cx="31.274711167817326" cy="762.3346005460581" opacity="0.46781375139819315"></circle><circle class="spot" r="7.265203053033314" cx="138.76734696185068" cy="547.1386857298626" opacity="0.4186109024140131"></circle><circle class="spot" r="9.833735732495235" cx="385.5562954672637" cy="463.5988681072967" opacity="0.5913293852626854"></circle><circle class="spot" r="4.168137895317225" cx="613.3996790679072" cy="653.6208176936556" opacity="0.11345023541408396"></circle><circle class="spot" r="6.914070428909618" cx="397.9751045399956" cy="513.6783491028021" opacity="0.5494340920450613"></circle><circle class="spot" r="8.902117652689919" cx="164.64442431584064" cy="630.6988104801788" opacity="0.30794151331942665"></circle><circle class="spot" r="9.602151812047328" cx="51.76475053117751" cy="228.3270382450513" opacity="0.5618041932182083"></circle><circle class="spot" r="6.201037792139384" cx="67.1613228547032" cy="89.46364915667472" opacity="0.1495990579674386"></circle><circle class="spot" r="5.176580392448816" cx="683.9417146251143" cy="96.11852759930483" opacity="0.3647312269270503"></circle><circle class="spot" r="7.634950938831152" cx="71.46085672609587" cy="598.1752749349877" opacity="0.1945651521701121"></circle><circle class="spot" r="9.938976863978397" cx="726.4788707318841" cy="225.67973606494135" opacity="0.8303583155795997"></circle><circle class="spot" r="5.042655118100442" cx="501.56195298491434" cy="215.72896263906424" opacity="0.9677552741440603"></circle><circle class="spot" r="4.876540635370352" cx="616.3741255015013" cy="109.57990223411201" opacity="0.933812756384149"></circle><circle class="spot" r="6.795449032175949" cx="450.2593971987823" cy="266.71320902443404" opacity="0.7554319115382162"></circle><circle class="spot" r="5.277065262593721" cx="628.803763008544" cy="45.61266314566736" opacity="0.379051705612548"></circle><circle class="spot" r="7.920747462430159" cx="744.0323833287872" cy="184.20695434571792" opacity="0.647553148949069"></circle><circle class="spot" r="6.380286793819302" cx="579.6145272301951" cy="595.03095091611" opacity="0.20788377859990237"></circle><circle class="spot" r="6.598735492642485" cx="357.163563779963" cy="353.065855437306" opacity="0.38734484679776116"></circle><circle class="spot" r="4.492666043321289" cx="672.4176392398372" cy="515.3047548831616" opacity="0.4402261329474322"></circle><circle class="spot" r="3.985040717647994" cx="497.8451871827433" cy="269.6890420396723" opacity="0.34994555820727985"></circle><circle class="spot" r="5.7429595192164875" cx="483.77083787593466" cy="417.5148465647635" opacity="0.30655183186538393"></circle><circle class="spot" r="9.297125379080178" cx="582.6533390808033" cy="274.68311918187106" opacity="0.37558932957270097"></circle><circle class="spot" r="6.320489967454267" cx="562.192792460439" cy="92.32729229729985" opacity="0.28514246832527246"></circle><circle class="spot" r="5.558170675198457" cx="409.783242709148" cy="423.7958872375143" opacity="0.5968785309180046"></circle><circle class="spot" r="8.675505761969857" cx="49.201024756440205" cy="426.8135135236636" opacity="0.2904931100775192"></circle><circle class="spot" r="7.402594605192899" cx="638.4453888750285" cy="225.15777418601132" opacity="0.5765878746024891"></circle><circle class="spot" r="10.212446604312278" cx="162.05055287757475" cy="740.6516165305585" opacity="0.5658266895170853"></circle><circle class="spot" r="7.223251640830421" cx="589.912491650755" cy="17.710346784659283" opacity="0.39105695825860776"></circle><circle class="spot" r="8.3443353936445" cx="54.107157427008445" cy="266.1586207178526" opacity="0.6067168364083819"></circle><circle class="spot" r="5.972872229244979" cx="700.3058608074745" cy="460.4298399710318" opacity="0.7170658995352002"></circle><circle class="spot" r="5.448398544127146" cx="751.7671993115739" cy="662.8205805394475" opacity="0.17449954479395186"></circle><circle class="spot" r="7.155504690077867" cx="292.6168063376657" cy="96.29633611162932" opacity="0.6687831723498314"></circle><circle class="spot" r="6.495773994745731" cx="206.82901978623573" cy="605.9436186208662" opacity="0.1681051958247449"></circle><circle class="spot" r="7.028439968300171" cx="283.8080638908971" cy="228.9162361426335" opacity="0.690950568678795"></circle><circle class="spot" r="10.310361158950812" cx="31.633846435409517" cy="139.40295270884266" opacity="0.5771727439225697"></circle><circle class="spot" r="5.185571123383324" cx="647.7734068819316" cy="351.4037839133573" opacity="0.4188058497292624"></circle><circle class="spot" r="10.242658492400913" cx="492.43805645676593" cy="714.2242286248942" opacity="0.6049844284937692"></circle><circle class="spot" r="7.703440267760272" cx="560.7322152384714" cy="728.390207199448" opacity="0.1643363406834999"></circle><circle class="spot" r="11.57551682465705" cx="21.3054648431964" cy="191.59527873984678" opacity="0.5171941938999897"></circle><circle class="spot" r="4.923984103961155" cx="574.7259344753021" cy="45.7064024218817" opacity="0.8796664005054038"></circle><circle class="spot" r="8.976531799730505" cx="196.85891103857364" cy="494.1050376131258" opacity="0.9241977474819287"></circle><circle class="spot" r="7.4110295935915484" cx="650.2411671852091" cy="605.1975309664904" opacity="0.39305707783261756"></circle><circle class="spot" r="7.252500910072287" cx="315.60691827845267" cy="322.11260648142326" opacity="0.9765688638700223"></circle><circle class="spot" r="5.654088695499057" cx="646.704253347452" cy="183.88804011875874" opacity="0.4088419549396354"></circle><circle class="spot" r="7.280516985319165" cx="18.43359699842916" cy="376.3502813044321" opacity="0.8073789993470857"></circle><circle class="spot" r="8.42297752509571" cx="27.57151903526226" cy="62.604071430432946" opacity="0.8472826655153123"></circle><circle class="spot" r="6.514083796197321" cx="350.10917847000724" cy="273.3654192569266" opacity="0.3048194346932417"></circle><circle class="spot" r="9.23680589832864" cx="227.42378958066394" cy="565.048045863819" opacity="0.8166203197240121"></circle><circle class="spot" r="5.30274991921426" cx="294.53749516418634" cy="479.89739613645867" opacity="0.7805717871277545"></circle><circle class="spot" r="7.162894729927859" cx="426.8869022861681" cy="76.89665297787276" opacity="0.3795501023123097"></circle><circle class="spot" r="12.251117425591925" cx="17.979513656722784" cy="674.7814913040488" opacity="0.5844765363697095"></circle><circle class="spot" r="6.901704453172268" cx="747.0994643070318" cy="77.46980416225634" opacity="0.484049269633436"></circle><circle class="spot" r="5.085197141307118" cx="753.2577818819739" cy="627.0791465349799" opacity="0.6026745024689977"></circle><circle class="spot" r="5.488119747202008" cx="373.6365103878445" cy="315.1312480621221" opacity="0.2704074570961378"></circle><circle class="spot" r="4.324041399143385" cx="789.693537925834" cy="232.3821759845886" opacity="0.9998731904868382"></circle><circle class="spot" r="6.536031050359907" cx="59.759331865846484" cy="644.9160485612468" opacity="0.8194649457059969"></circle><circle class="spot" r="8.55299950545286" cx="781.6017142453817" cy="387.15836507377117" opacity="0.6996184627769511"></circle><circle class="spot" r="8.978358313772347" cx="374.9258535838311" cy="132.68655432327805" opacity="0.7335760458977816"></circle><circle class="spot" r="5.423955482269583" cx="274.6101223403543" cy="182.3315624620083" opacity="0.9690033259037847"></circle><circle class="spot" r="4.900382309337631" cx="101.26985781363297" cy="564.732946855613" opacity="0.770200857004035"></circle><circle class="spot" r="5.1508984067450605" cx="726.1262134570528" cy="492.61267801519125" opacity="0.30596555851874285"></circle><circle class="spot" r="9.671515858656111" cx="68.49061195117856" cy="468.26146338280876" opacity="0.13141200093412406"></circle><circle class="spot" r="6.1759084847290415" cx="88.57210994203997" cy="346.8001401189291" opacity="0.9845788193515144"></circle><circle class="spot" r="9.717651984014825" cx="418.087018639041" cy="315.539181341779" opacity="0.17162249007207356"></circle><circle class="spot" r="8.956189005938242" cx="199.62824515573647" cy="304.94318552512635" opacity="0.578965556238575"></circle><circle class="spot" r="5.000549483195962" cx="523.4797253423528" cy="304.76885795295806" opacity="0.6282234788807324"></circle><circle class="spot" r="5.729293279244882" cx="158.18680861697678" cy="326.2024187400325" opacity="0.7950485128534425"></circle><circle class="spot" r="6.128121918108717" cx="500.64788973349266" cy="500.3722970177406" opacity="0.17732976300177886"></circle><circle class="spot" r="9.516413256531882" cx="601.481750150017" cy="168.46682470349572" opacity="0.13452273247219693"></circle><circle class="spot" r="8.143106340077143" cx="549.348905548003" cy="18.257471305206494" opacity="0.488424364263117"></circle><circle class="spot" r="5.266664196023482" cx="462.86426125054885" cy="223.71107615579353" opacity="0.9719744986689018"></circle><circle class="spot" r="8.233313492534355" cx="67.00108446976314" cy="706.8412771736878" opacity="0.9331556991931943"></circle><circle class="spot" r="4.04073060238604" cx="185.48209706606514" cy="49.904476213196226" opacity="0.4855650874738694"></circle><circle class="spot" r="7.708173203296689" cx="190.19025326930083" cy="249.98332437000815" opacity="0.7729815422026483"></circle><circle class="spot" r="6.881716711794746" cx="212.95415737621235" cy="447.4277004463688" opacity="0.9361623300832697"></circle><circle class="spot" r="3.6556261940449337" cx="306.55964307151373" cy="621.1282714703143" opacity="0.20825236760089785"></circle><circle class="spot" r="8.634618274815981" cx="559.5587165467441" cy="180.32821310289808" opacity="0.7156625620766995"></circle><circle class="spot" r="6.159886022770161" cx="716.019401547303" cy="401.1128007849753" opacity="0.308177545463976"></circle><circle class="spot" r="9.518673054409291" cx="149.99940223956713" cy="72.43800884231237" opacity="0.2645681774074026"></circle><circle class="spot" r="4.17435865526426" cx="732.0379670881905" cy="696.1850760985221" opacity="0.6614808903871461"></circle><circle class="spot" r="7.999061622963389" cx="167.46404915843354" cy="577.2319143137922" opacity="0.44416085294680874"></circle><circle class="spot" r="9.189583058128923" cx="403.94690953012287" cy="265.30030594516353" opacity="0.37144018260268985"></circle><circle class="spot" r="6.321142758633182" cx="155.3864701163591" cy="370.6322943203794" opacity="0.2028329814692374"></circle><circle class="spot" r="4.6910323647866035" cx="278.1723231617387" cy="652.2810340262491" opacity="0.8431930784693897"></circle><circle class="spot" r="5.425598616604444" cx="763.3411759587648" cy="226.30120237242406" opacity="0.7043489326617667"></circle><circle class="spot" r="9.895160607109343" cx="436.10437651345524" cy="723.7775170913847" opacity="0.9035649972376876"></circle><circle class="spot" r="8.132228734814104" cx="573.3227195589183" cy="317.99887356311683" opacity="0.13075846287783355"></circle><circle class="spot" r="8.236246436572307" cx="468.08332289187973" cy="620.0942934140205" opacity="0.5999077308167905"></circle><circle class="spot" r="7.5909839266321875" cx="479.5548607118352" cy="298.7876848142442" opacity="0.6333821688437005"></circle><circle class="spot" r="6.222964989712833" cx="297.1048126516986" cy="580.5299839445371" opacity="0.17040624539426766"></circle><circle class="spot" r="5.582598944935728" cx="191.65079496944765" cy="395.48923425694346" opacity="0.87887014358243"></circle><circle class="spot" r="7.020374293060806" cx="480.4257237887752" cy="451.96085126262096" opacity="0.8585512100717725"></circle><circle class="spot" r="10.255532891871715" cx="623.0858271796051" cy="507.41679626726926" opacity="0.8271291988970436"></circle><circle class="spot" r="6.1211280733862035" cx="102.09111551575148" cy="63.16032258080878" opacity="0.24167719841687396"></circle><circle class="spot" r="7.555127566943867" cx="336.45614512342723" cy="696.1327725711407" opacity="0.3045136514080572"></circle><circle class="spot" r="4.616389392968056" cx="95.83414855940732" cy="120.84616050160493" opacity="0.381371929081854"></circle><circle class="spot" r="7.646639408046604" cx="511.55684281735586" cy="339.10807252051256" opacity="0.5538891847887076"></circle><circle class="spot" r="5.908729904838776" cx="483.1425159762309" cy="145.79393910367375" opacity="0.650813229115662"></circle><circle class="spot" r="8.370571377714054" cx="97.67596135814418" cy="509.14602242663085" opacity="0.917023263699238"></circle><circle class="spot" r="5.465508863331342" cx="713.6062306761588" cy="748.5997559546443" opacity="0.14379438823434715"></circle><circle class="spot" r="7.736584259104024" cx="111.69159655214456" cy="150.98650282612613" opacity="0.34303673746704477"></circle><circle class="spot" r="7.607675115355556" cx="784.0411540664558" cy="71.18985060287487" opacity="0.2336978545300706"></circle><circle class="spot" r="8.810737229450975" cx="35.620670798101926" cy="503.9073703064273" opacity="0.26707718016912607"></circle><circle class="spot" r="5.042718616122109" cx="584.7851523719218" cy="660.57801418275" opacity="0.4072263801717816"></circle><circle class="spot" r="9.297054361324843" cx="450.41080361425765" cy="403.00722299630365" opacity="0.4093512653635184"></circle><circle class="spot" r="6.188074411625661" cx="769.7139997904873" cy="272.4259780761285" opacity="0.8175655698224683"></circle><circle class="spot" r="8.572695317412549" cx="76.0522091838469" cy="297.17317369236025" opacity="0.8582642921318067"></circle><circle class="spot" r="6.382359112798956" cx="688.7811417578167" cy="593.4188769229511" opacity="0.2623010866039778"></circle><circle class="spot" r="6.691876929348329" cx="15.62018901731541" cy="417.9067507622206" opacity="0.11915853520173653"></circle><circle class="spot" r="5.03277825037371" cx="35.38731062018466" cy="303.50023205196374" opacity="0.7995442211746545"></circle><circle class="spot" r="7.539084041373347" cx="397.1987293697872" cy="683.2881118453654" opacity="0.6050351568747511"></circle><circle class="spot" r="7.684006254309185" cx="613.7939092808537" cy="365.63602973281974" opacity="0.27763043408038945"></circle><circle class="spot" r="7.02498763725303" cx="92.47738078447314" cy="390.45328319040306" opacity="0.3755637528992365"></circle><circle class="spot" r="6.139779612642925" cx="584.9763666802057" cy="126.78211202604194" opacity="0.8181881912351914"></circle><circle class="spot" r="7.066206261089365" cx="201.8305960377776" cy="534.9451188925133" opacity="0.684197704578109"></circle><circle class="spot" r="7.293155930427929" cx="509.58024946119264" cy="750.904257051115" opacity="0.8436947604431729"></circle><circle class="spot" r="10.21893012114188" cx="442.04868231750226" cy="459.03392524532165" opacity="0.4911888352564331"></circle><circle class="spot" r="5.071291378722571" cx="656.327685749611" cy="120.54010109160565" opacity="0.8493841099322444"></circle><circle class="spot" r="7.336052078900943" cx="221.3437532246032" cy="402.32800144509145" opacity="0.12132409976731041"></circle><circle class="spot" r="4.505320958535413" cx="251.14510669960194" cy="209.64369746571478" opacity="0.2591534706456641"></circle><circle class="spot" r="6.1621087495583255" cx="683.5962626096159" cy="207.09263776409128" opacity="0.611055965443094"></circle><circle class="spot" r="10.902184133670334" cx="210.1674708493622" cy="184.99526412807145" opacity="0.22020865742379753"></circle><circle class="spot" r="6.825730557017071" cx="365.1219312157699" cy="574.1734926518983" opacity="0.6258332653808154"></circle><circle class="spot" r="6.6489377555278875" cx="335.9633578822486" cy="386.0793873688692" opacity="0.6277983610139476"></circle><circle class="spot" r="11.210286323232513" cx="335.43881852573503" cy="89.25350487933586" opacity="0.46897487641519664"></circle><circle class="spot" r="8.56940211554498" cx="305.2261008175815" cy="529.2661073527607" opacity="0.9868874451517257"></circle><circle class="spot" r="4.931038258726942" cx="635.3672850878066" cy="421.27560431274816" opacity="0.21516890107255482"></circle><circle class="spot" r="7.537002729303676" cx="225.3435099598863" cy="278.8243021401011" opacity="0.9310557320395241"></circle><circle class="spot" r="5.1571180747768315" cx="253.47368782648996" cy="597.2866180273118" opacity="0.36494673223491936"></circle><circle class="spot" r="4.2060362868993755" cx="521.0975990289504" cy="245.7751006345249" opacity="0.4225825226658535"></circle><circle class="spot" r="6.073506347406859" cx="124.20894052044294" cy="422.13527049437977" opacity="0.3903697114380701"></circle><circle class="spot" r="8.32878103661216" cx="630.754900602882" cy="554.0460856966946" opacity="0.1040794093678916"></circle><circle class="spot" r="8.365703230658907" cx="416.55835289078624" cy="125.45220942713591" opacity="0.9698044145891278"></circle><circle class="spot" r="4.864399974464438" cx="750.0765454595921" cy="408.62832735029644" opacity="0.25152782035604315"></circle><circle class="spot" r="8.704270660060594" cx="674.8700707331957" cy="703.8843484997932" opacity="0.40284380706841794"></circle><circle class="spot" r="11.651431576865818" cx="518.3623921923387" cy="105.97881686609378" opacity="0.4189046363283421"></circle><circle class="spot" r="5.51006369678311" cx="86.72682766496517" cy="431.134988971354" opacity="0.7737690759342069"></circle><circle class="spot" r="10.2053654897059" cx="239.3238992727397" cy="138.11162796427124" opacity="0.2876084528185967"></circle><circle class="spot" r="3.771413522372377" cx="777.0863567053082" cy="540.0915465192705" opacity="0.12288196413751888"></circle><circle class="spot" r="8.70368569619211" cx="418.22137409943554" cy="218.7963240151741" opacity="0.3426895316495595"></circle></g></svg>