<svg width="1088" height="291" viewBox="0 0 1088 291" fill="none" xmlns="http://www.w3.org/2000/svg">
<path d="M7.03 66V0.639998H28.025V66H7.03ZM72.6587 67.14C70.062 67.14 67.687 66.8867 65.5337 66.38C63.3803 65.9367 61.512 65.1767 59.9287 64.1C58.3453 62.96 57.1103 61.5033 56.2237 59.73C55.4003 57.8933 54.9887 55.6767 54.9887 53.08C54.9887 49.3433 55.7487 46.3033 57.2687 43.96C58.852 41.6167 61.132 39.8117 64.1087 38.545C67.0853 37.2783 70.6953 36.4233 74.9387 35.98C79.2453 35.4733 84.1537 35.22 89.6637 35.22V32.75C89.6637 31.3567 89.3153 30.2483 88.6187 29.425C87.9853 28.5383 87.1303 27.8733 86.0537 27.43C84.977 26.9867 83.742 26.765 82.3487 26.765C81.272 26.765 80.1637 26.8917 79.0237 27.145C77.8837 27.3983 76.9337 27.8417 76.1737 28.475C75.477 29.1083 75.1287 29.995 75.1287 31.135V31.515H56.5087C56.4453 31.2617 56.4137 31.04 56.4137 30.85C56.4137 30.66 56.4137 30.4383 56.4137 30.185C56.4137 27.0817 57.3953 24.39 59.3587 22.11C61.3853 19.7667 64.3303 17.9617 68.1937 16.695C72.1203 15.365 76.9337 14.7 82.6337 14.7C87.257 14.7 91.532 15.2067 95.4587 16.22C99.3853 17.2333 102.552 18.9433 104.959 21.35C107.365 23.6933 108.569 26.9233 108.569 31.04V50.61C108.569 51.6233 108.822 52.51 109.329 53.27C109.835 53.9667 110.595 54.315 111.609 54.315H115.029V65.24C114.269 65.6833 113.002 66.095 111.229 66.475C109.519 66.9183 107.492 67.14 105.149 67.14C102.615 67.14 100.399 66.8867 98.4987 66.38C96.5987 65.8733 95.047 65.145 93.8437 64.195C92.7037 63.245 91.912 62.1367 91.4687 60.87H90.8037C89.4737 62.0733 87.922 63.15 86.1487 64.1C84.4387 65.05 82.4753 65.7783 80.2587 66.285C78.042 66.855 75.5087 67.14 72.6587 67.14ZM80.3537 55.36C81.557 55.36 82.697 55.2017 83.7737 54.885C84.9137 54.505 85.927 54.03 86.8137 53.46C87.7003 52.8267 88.397 52.0983 88.9037 51.275C89.4103 50.3883 89.6637 49.4383 89.6637 48.425V44.15C85.927 44.15 82.887 44.435 80.5437 45.005C78.2637 45.575 76.5853 46.335 75.5087 47.285C74.432 48.235 73.8937 49.3433 73.8937 50.61C73.8937 51.8767 74.2103 52.8583 74.8437 53.555C75.477 54.2517 76.2687 54.7267 77.2187 54.98C78.232 55.2333 79.277 55.36 80.3537 55.36ZM121.203 66V15.84H136.688L137.923 23.345H138.588C139.791 21.445 141.28 19.8617 143.053 18.595C144.826 17.265 146.758 16.2833 148.848 15.65C151.001 15.0167 153.186 14.7 155.403 14.7C159.266 14.7 162.465 15.46 164.998 16.98C167.531 18.4367 169.4 20.5583 170.603 23.345H171.268C172.471 21.445 173.928 19.8617 175.638 18.595C177.411 17.265 179.343 16.2833 181.433 15.65C183.523 15.0167 185.645 14.7 187.798 14.7C191.661 14.7 194.86 15.46 197.393 16.98C199.926 18.4367 201.795 20.5583 202.998 23.345C204.265 26.1317 204.898 29.52 204.898 33.51V66H185.993V35.79C185.993 34.7133 185.866 33.7633 185.613 32.94C185.36 32.0533 184.98 31.2933 184.473 30.66C183.966 30.0267 183.333 29.5517 182.573 29.235C181.813 28.855 180.958 28.665 180.008 28.665C178.488 28.665 177.158 29.045 176.018 29.805C174.878 30.5017 173.991 31.4517 173.358 32.655C172.788 33.795 172.503 35.0933 172.503 36.55V66H153.598V35.79C153.598 34.7133 153.471 33.7633 153.218 32.94C152.965 32.0533 152.585 31.2933 152.078 30.66C151.571 30.0267 150.938 29.5517 150.178 29.235C149.418 28.855 148.563 28.665 147.613 28.665C146.093 28.665 144.763 29.045 143.623 29.805C142.546 30.5017 141.691 31.4517 141.058 32.655C140.425 33.795 140.108 35.0933 140.108 36.55V66H121.203ZM248.093 67.14C245.497 67.14 243.122 66.8867 240.968 66.38C238.815 65.9367 236.947 65.1767 235.363 64.1C233.78 62.96 232.545 61.5033 231.658 59.73C230.835 57.8933 230.423 55.6767 230.423 53.08C230.423 49.3433 231.183 46.3033 232.703 43.96C234.287 41.6167 236.567 39.8117 239.543 38.545C242.52 37.2783 246.13 36.4233 250.373 35.98C254.68 35.4733 259.588 35.22 265.098 35.22V32.75C265.098 31.3567 264.75 30.2483 264.053 29.425C263.42 28.5383 262.565 27.8733 261.488 27.43C260.412 26.9867 259.177 26.765 257.783 26.765C256.707 26.765 255.598 26.8917 254.458 27.145C253.318 27.3983 252.368 27.8417 251.608 28.475C250.912 29.1083 250.563 29.995 250.563 31.135V31.515H231.943C231.88 31.2617 231.848 31.04 231.848 30.85C231.848 30.66 231.848 30.4383 231.848 30.185C231.848 27.0817 232.83 24.39 234.793 22.11C236.82 19.7667 239.765 17.9617 243.628 16.695C247.555 15.365 252.368 14.7 258.068 14.7C262.692 14.7 266.967 15.2067 270.893 16.22C274.82 17.2333 277.987 18.9433 280.393 21.35C282.8 23.6933 284.003 26.9233 284.003 31.04V50.61C284.003 51.6233 284.257 52.51 284.763 53.27C285.27 53.9667 286.03 54.315 287.043 54.315H290.463V65.24C289.703 65.6833 288.437 66.095 286.663 66.475C284.953 66.9183 282.927 67.14 280.583 67.14C278.05 67.14 275.833 66.8867 273.933 66.38C272.033 65.8733 270.482 65.145 269.278 64.195C268.138 63.245 267.347 62.1367 266.903 60.87H266.238C264.908 62.0733 263.357 63.15 261.583 64.1C259.873 65.05 257.91 65.7783 255.693 66.285C253.477 66.855 250.943 67.14 248.093 67.14ZM255.788 55.36C256.992 55.36 258.132 55.2017 259.208 54.885C260.348 54.505 261.362 54.03 262.248 53.46C263.135 52.8267 263.832 52.0983 264.338 51.275C264.845 50.3883 265.098 49.4383 265.098 48.425V44.15C261.362 44.15 258.322 44.435 255.978 45.005C253.698 45.575 252.02 46.335 250.943 47.285C249.867 48.235 249.328 49.3433 249.328 50.61C249.328 51.8767 249.645 52.8583 250.278 53.555C250.912 54.2517 251.703 54.7267 252.653 54.98C253.667 55.2333 254.712 55.36 255.788 55.36ZM18.335 169L0 118.84H20.425L24.32 134.135C24.5733 134.958 24.89 136.225 25.27 137.935C25.7133 139.582 26.1567 141.355 26.6 143.255C27.1067 145.155 27.55 146.897 27.93 148.48H28.595C29.0383 146.897 29.45 145.313 29.83 143.73C30.2733 142.147 30.7167 140.563 31.16 138.98C31.6033 137.397 32.015 135.813 32.395 134.23L36.48 118.84H55.29L59.28 134.325C59.5333 135.212 59.85 136.51 60.23 138.22C60.6733 139.867 61.1167 141.608 61.56 143.445C62.0667 145.282 62.51 146.96 62.89 148.48H63.555C63.8717 147.213 64.2517 145.725 64.695 144.015C65.1383 142.305 65.5817 140.595 66.025 138.885C66.4683 137.112 66.8483 135.592 67.165 134.325L71.25 118.84H89.68L71.25 169H52.82L48.07 152.09C47.7533 151.013 47.405 149.81 47.025 148.48C46.645 147.087 46.265 145.757 45.885 144.49C45.5683 143.16 45.2833 142.02 45.03 141.07H44.65C44.46 141.957 44.175 143.033 43.795 144.3C43.4783 145.567 43.13 146.865 42.75 148.195C42.37 149.525 41.99 150.792 41.61 151.995L36.765 169H18.335ZM122.487 170.14C116.47 170.14 111.245 169.222 106.812 167.385C102.442 165.485 99.0536 162.603 96.6469 158.74C94.3036 154.877 93.1319 149.937 93.1319 143.92C93.1319 138.03 94.3036 133.153 96.6469 129.29C98.9902 125.427 102.252 122.545 106.432 120.645C110.675 118.682 115.647 117.7 121.347 117.7C127.364 117.7 132.462 118.65 136.642 120.55C140.885 122.387 144.115 125.237 146.332 129.1C148.549 132.963 149.657 137.903 149.657 143.92V147.15H112.037C112.037 149.43 112.354 151.393 112.987 153.04C113.684 154.687 114.76 155.953 116.217 156.84C117.737 157.663 119.7 158.075 122.107 158.075C123.817 158.075 125.242 157.885 126.382 157.505C127.585 157.125 128.535 156.618 129.232 155.985C129.992 155.288 130.53 154.497 130.847 153.61C131.164 152.723 131.322 151.773 131.322 150.76H149.657C149.657 153.737 149.087 156.428 147.947 158.835C146.807 161.242 145.097 163.3 142.817 165.01C140.537 166.657 137.687 167.923 134.267 168.81C130.91 169.697 126.984 170.14 122.487 170.14ZM112.132 138.22H130.562C130.562 136.89 130.372 135.718 129.992 134.705C129.612 133.628 129.042 132.742 128.282 132.045C127.585 131.285 126.699 130.715 125.622 130.335C124.609 129.955 123.437 129.765 122.107 129.765C120.017 129.765 118.275 130.113 116.882 130.81C115.489 131.507 114.412 132.488 113.652 133.755C112.892 134.958 112.385 136.447 112.132 138.22ZM191.836 170.14C188.606 170.14 185.598 169.475 182.811 168.145C180.088 166.815 177.903 164.725 176.256 161.875H175.591L174.261 169H158.871V100.125H177.776V123.495H178.441C179.455 122.228 180.658 121.183 182.051 120.36C183.445 119.473 184.965 118.808 186.611 118.365C188.321 117.922 190.063 117.7 191.836 117.7C196.27 117.7 200.07 118.682 203.236 120.645C206.403 122.545 208.81 125.427 210.456 129.29C212.166 133.153 213.021 137.998 213.021 143.825C213.021 149.715 212.166 154.623 210.456 158.55C208.81 162.413 206.403 165.327 203.236 167.29C200.07 169.19 196.27 170.14 191.836 170.14ZM185.946 156.175C187.91 156.175 189.493 155.795 190.696 155.035C191.9 154.212 192.755 153.072 193.261 151.615C193.831 150.158 194.116 148.448 194.116 146.485V141.45C194.116 139.487 193.831 137.777 193.261 136.32C192.755 134.863 191.9 133.723 190.696 132.9C189.493 132.077 187.91 131.665 185.946 131.665C184.49 131.665 183.223 131.95 182.146 132.52C181.07 133.09 180.183 133.882 179.486 134.895C178.853 135.845 178.378 136.985 178.061 138.315C177.745 139.582 177.586 140.943 177.586 142.4V145.535C177.586 147.498 177.871 149.303 178.441 150.95C179.011 152.533 179.898 153.8 181.101 154.75C182.368 155.7 183.983 156.175 185.946 156.175ZM258.116 170.14C253.682 170.14 249.882 169.19 246.716 167.29C243.549 165.327 241.111 162.413 239.401 158.55C237.754 154.623 236.931 149.715 236.931 143.825C236.931 137.998 237.754 133.153 239.401 129.29C241.111 125.427 243.549 122.545 246.716 120.645C249.882 118.682 253.682 117.7 258.116 117.7C259.889 117.7 261.599 117.922 263.246 118.365C264.956 118.745 266.507 119.378 267.901 120.265C269.357 121.088 270.561 122.165 271.511 123.495H272.176V100.125H291.081V169H275.691L274.361 161.875H273.696C271.922 164.725 269.706 166.815 267.046 168.145C264.386 169.475 261.409 170.14 258.116 170.14ZM264.006 156.175C265.969 156.175 267.552 155.7 268.756 154.75C270.022 153.8 270.941 152.533 271.511 150.95C272.081 149.303 272.366 147.498 272.366 145.535V142.4C272.366 140.943 272.207 139.582 271.891 138.315C271.574 136.985 271.067 135.845 270.371 134.895C269.737 133.882 268.882 133.09 267.806 132.52C266.729 131.95 265.462 131.665 264.006 131.665C262.042 131.665 260.459 132.077 259.256 132.9C258.052 133.723 257.166 134.863 256.596 136.32C256.089 137.777 255.836 139.487 255.836 141.45V146.485C255.836 148.448 256.089 150.158 256.596 151.615C257.166 153.072 258.052 154.212 259.256 155.035C260.459 155.795 262.042 156.175 264.006 156.175ZM329.65 170.14C323.633 170.14 318.408 169.222 313.975 167.385C309.605 165.485 306.217 162.603 303.81 158.74C301.467 154.877 300.295 149.937 300.295 143.92C300.295 138.03 301.467 133.153 303.81 129.29C306.153 125.427 309.415 122.545 313.595 120.645C317.838 118.682 322.81 117.7 328.51 117.7C334.527 117.7 339.625 118.65 343.805 120.55C348.048 122.387 351.278 125.237 353.495 129.1C355.712 132.963 356.82 137.903 356.82 143.92V147.15H319.2C319.2 149.43 319.517 151.393 320.15 153.04C320.847 154.687 321.923 155.953 323.38 156.84C324.9 157.663 326.863 158.075 329.27 158.075C330.98 158.075 332.405 157.885 333.545 157.505C334.748 157.125 335.698 156.618 336.395 155.985C337.155 155.288 337.693 154.497 338.01 153.61C338.327 152.723 338.485 151.773 338.485 150.76H356.82C356.82 153.737 356.25 156.428 355.11 158.835C353.97 161.242 352.26 163.3 349.98 165.01C347.7 166.657 344.85 167.923 341.43 168.81C338.073 169.697 334.147 170.14 329.65 170.14ZM319.295 138.22H337.725C337.725 136.89 337.535 135.718 337.155 134.705C336.775 133.628 336.205 132.742 335.445 132.045C334.748 131.285 333.862 130.715 332.785 130.335C331.772 129.955 330.6 129.765 329.27 129.765C327.18 129.765 325.438 130.113 324.045 130.81C322.652 131.507 321.575 132.488 320.815 133.755C320.055 134.958 319.548 136.447 319.295 138.22ZM379.239 169L360.239 118.84H380.569L385.414 135.085C385.731 135.972 386.111 137.302 386.554 139.075C387.061 140.848 387.599 142.717 388.169 144.68C388.803 146.643 389.341 148.448 389.784 150.095H390.449C390.893 148.575 391.399 146.865 391.969 144.965C392.539 143.002 393.078 141.133 393.584 139.36C394.091 137.587 394.503 136.162 394.819 135.085L399.664 118.84H418.284L399.094 169H379.239ZM451.09 170.14C445.074 170.14 439.849 169.222 435.415 167.385C431.045 165.485 427.657 162.603 425.25 158.74C422.907 154.877 421.735 149.937 421.735 143.92C421.735 138.03 422.907 133.153 425.25 129.29C427.594 125.427 430.855 122.545 435.035 120.645C439.279 118.682 444.25 117.7 449.95 117.7C455.967 117.7 461.065 118.65 465.245 120.55C469.489 122.387 472.719 125.237 474.935 129.1C477.152 132.963 478.26 137.903 478.26 143.92V147.15H440.64C440.64 149.43 440.957 151.393 441.59 153.04C442.287 154.687 443.364 155.953 444.82 156.84C446.34 157.663 448.304 158.075 450.71 158.075C452.42 158.075 453.845 157.885 454.985 157.505C456.189 157.125 457.139 156.618 457.835 155.985C458.595 155.288 459.134 154.497 459.45 153.61C459.767 152.723 459.925 151.773 459.925 150.76H478.26C478.26 153.737 477.69 156.428 476.55 158.835C475.41 161.242 473.7 163.3 471.42 165.01C469.14 166.657 466.29 167.923 462.87 168.81C459.514 169.697 455.587 170.14 451.09 170.14ZM440.735 138.22H459.165C459.165 136.89 458.975 135.718 458.595 134.705C458.215 133.628 457.645 132.742 456.885 132.045C456.189 131.285 455.302 130.715 454.225 130.335C453.212 129.955 452.04 129.765 450.71 129.765C448.62 129.765 446.879 130.113 445.485 130.81C444.092 131.507 443.015 132.488 442.255 133.755C441.495 134.958 440.989 136.447 440.735 138.22ZM487.38 169V100.125H506.285V169H487.38ZM543.652 170.14C537.952 170.14 532.98 169.19 528.737 167.29C524.557 165.327 521.295 162.413 518.952 158.55C516.608 154.623 515.437 149.747 515.437 143.92C515.437 138.03 516.608 133.153 518.952 129.29C521.295 125.427 524.557 122.545 528.737 120.645C532.98 118.682 537.952 117.7 543.652 117.7C549.352 117.7 554.323 118.682 558.567 120.645C562.81 122.545 566.103 125.427 568.447 129.29C570.79 133.153 571.962 138.03 571.962 143.92C571.962 149.747 570.79 154.623 568.447 158.55C566.103 162.413 562.81 165.327 558.567 167.29C554.323 169.19 549.352 170.14 543.652 170.14ZM543.652 157.315C545.868 157.315 547.673 156.903 549.067 156.08C550.46 155.193 551.473 153.958 552.107 152.375C552.74 150.792 553.057 148.892 553.057 146.675V141.26C553.057 139.043 552.74 137.143 552.107 135.56C551.473 133.913 550.46 132.678 549.067 131.855C547.673 130.968 545.868 130.525 543.652 130.525C541.435 130.525 539.63 130.968 538.237 131.855C536.907 132.678 535.925 133.913 535.292 135.56C534.658 137.143 534.342 139.043 534.342 141.26V146.675C534.342 148.892 534.658 150.792 535.292 152.375C535.925 153.958 536.907 155.193 538.237 156.08C539.63 156.903 541.435 157.315 543.652 157.315ZM581.176 187.715V118.84H596.566L598.181 125.965H598.846C600.619 122.988 602.804 120.867 605.401 119.6C607.998 118.333 610.911 117.7 614.141 117.7C618.574 117.7 622.374 118.682 625.541 120.645C628.708 122.545 631.114 125.458 632.761 129.385C634.471 133.248 635.326 138.125 635.326 144.015C635.326 149.842 634.471 154.687 632.761 158.55C631.114 162.413 628.708 165.327 625.541 167.29C622.374 169.19 618.574 170.14 614.141 170.14C612.368 170.14 610.626 169.95 608.916 169.57C607.269 169.19 605.749 168.588 604.356 167.765C602.963 166.878 601.759 165.77 600.746 164.44H600.081V187.715H581.176ZM608.251 156.175C610.214 156.175 611.798 155.763 613.001 154.94C614.204 154.117 615.059 152.977 615.566 151.52C616.136 150.063 616.421 148.353 616.421 146.39V141.355C616.421 139.392 616.136 137.682 615.566 136.225C615.059 134.768 614.204 133.66 613.001 132.9C611.798 132.077 610.214 131.665 608.251 131.665C606.288 131.665 604.673 132.14 603.406 133.09C602.203 134.04 601.316 135.338 600.746 136.985C600.176 138.568 599.891 140.342 599.891 142.305V145.44C599.891 146.897 600.049 148.29 600.366 149.62C600.683 150.887 601.158 152.027 601.791 153.04C602.488 153.99 603.374 154.75 604.451 155.32C605.528 155.89 606.794 156.175 608.251 156.175ZM671.52 170.14C665.503 170.14 660.278 169.222 655.845 167.385C651.475 165.485 648.087 162.603 645.68 158.74C643.337 154.877 642.165 149.937 642.165 143.92C642.165 138.03 643.337 133.153 645.68 129.29C648.023 125.427 651.285 122.545 655.465 120.645C659.708 118.682 664.68 117.7 670.38 117.7C676.397 117.7 681.495 118.65 685.675 120.55C689.918 122.387 693.148 125.237 695.365 129.1C697.582 132.963 698.69 137.903 698.69 143.92V147.15H661.07C661.07 149.43 661.387 151.393 662.02 153.04C662.717 154.687 663.793 155.953 665.25 156.84C666.77 157.663 668.733 158.075 671.14 158.075C672.85 158.075 674.275 157.885 675.415 157.505C676.618 157.125 677.568 156.618 678.265 155.985C679.025 155.288 679.563 154.497 679.88 153.61C680.197 152.723 680.355 151.773 680.355 150.76H698.69C698.69 153.737 698.12 156.428 696.98 158.835C695.84 161.242 694.13 163.3 691.85 165.01C689.57 166.657 686.72 167.923 683.3 168.81C679.943 169.697 676.017 170.14 671.52 170.14ZM661.165 138.22H679.595C679.595 136.89 679.405 135.718 679.025 134.705C678.645 133.628 678.075 132.742 677.315 132.045C676.618 131.285 675.732 130.715 674.655 130.335C673.642 129.955 672.47 129.765 671.14 129.765C669.05 129.765 667.308 130.113 665.915 130.81C664.522 131.507 663.445 132.488 662.685 133.755C661.925 134.958 661.418 136.447 661.165 138.22ZM707.809 169V118.84H723.294L724.529 126.44H725.194C726.018 124.54 727.063 122.925 728.329 121.595C729.659 120.265 731.179 119.283 732.889 118.65C734.599 117.953 736.404 117.605 738.304 117.605C739.571 117.605 740.711 117.732 741.724 117.985C742.738 118.238 743.466 118.492 743.909 118.745V134.61H737.829C735.803 134.61 734.061 134.895 732.604 135.465C731.211 135.972 730.071 136.763 729.184 137.84C728.361 138.853 727.728 140.12 727.284 141.64C726.904 143.097 726.714 144.775 726.714 146.675V169H707.809ZM38.76 273.14C35.53 273.14 32.5217 272.475 29.735 271.145C27.0117 269.815 24.8267 267.725 23.18 264.875H22.515L21.185 272H5.795V203.125H24.7V226.495H25.365C26.3783 225.228 27.5817 224.183 28.975 223.36C30.3683 222.473 31.8883 221.808 33.535 221.365C35.245 220.922 36.9867 220.7 38.76 220.7C43.1933 220.7 46.9933 221.682 50.16 223.645C53.3267 225.545 55.7333 228.427 57.38 232.29C59.09 236.153 59.945 240.998 59.945 246.825C59.945 252.715 59.09 257.623 57.38 261.55C55.7333 265.413 53.3267 268.327 50.16 270.29C46.9933 272.19 43.1933 273.14 38.76 273.14ZM32.87 259.175C34.8333 259.175 36.4167 258.795 37.62 258.035C38.8233 257.212 39.6783 256.072 40.185 254.615C40.755 253.158 41.04 251.448 41.04 249.485V244.45C41.04 242.487 40.755 240.777 40.185 239.32C39.6783 237.863 38.8233 236.723 37.62 235.9C36.4167 235.077 34.8333 234.665 32.87 234.665C31.4133 234.665 30.1467 234.95 29.07 235.52C27.9933 236.09 27.1067 236.882 26.41 237.895C25.7767 238.845 25.3017 239.985 24.985 241.315C24.6683 242.582 24.51 243.943 24.51 245.4V248.535C24.51 250.498 24.795 252.303 25.365 253.95C25.935 255.533 26.8217 256.8 28.025 257.75C29.2917 258.7 30.9067 259.175 32.87 259.175ZM83.8843 273.14C81.2876 273.14 78.9126 272.887 76.7593 272.38C74.6059 271.937 72.7376 271.177 71.1543 270.1C69.5709 268.96 68.3359 267.503 67.4493 265.73C66.6259 263.893 66.2143 261.677 66.2143 259.08C66.2143 255.343 66.9743 252.303 68.4943 249.96C70.0776 247.617 72.3576 245.812 75.3343 244.545C78.3109 243.278 81.9209 242.423 86.1643 241.98C90.4709 241.473 95.3793 241.22 100.889 241.22V238.75C100.889 237.357 100.541 236.248 99.8443 235.425C99.2109 234.538 98.3559 233.873 97.2793 233.43C96.2026 232.987 94.9676 232.765 93.5743 232.765C92.4976 232.765 91.3893 232.892 90.2493 233.145C89.1093 233.398 88.1593 233.842 87.3993 234.475C86.7026 235.108 86.3543 235.995 86.3543 237.135V237.515H67.7343C67.6709 237.262 67.6393 237.04 67.6393 236.85C67.6393 236.66 67.6393 236.438 67.6393 236.185C67.6393 233.082 68.6209 230.39 70.5843 228.11C72.6109 225.767 75.5559 223.962 79.4193 222.695C83.3459 221.365 88.1593 220.7 93.8593 220.7C98.4826 220.7 102.758 221.207 106.684 222.22C110.611 223.233 113.778 224.943 116.184 227.35C118.591 229.693 119.794 232.923 119.794 237.04V256.61C119.794 257.623 120.048 258.51 120.554 259.27C121.061 259.967 121.821 260.315 122.834 260.315H126.254V271.24C125.494 271.683 124.228 272.095 122.454 272.475C120.744 272.918 118.718 273.14 116.374 273.14C113.841 273.14 111.624 272.887 109.724 272.38C107.824 271.873 106.273 271.145 105.069 270.195C103.929 269.245 103.138 268.137 102.694 266.87H102.029C100.699 268.073 99.1476 269.15 97.3743 270.1C95.6643 271.05 93.7009 271.778 91.4843 272.285C89.2676 272.855 86.7343 273.14 83.8843 273.14ZM91.5793 261.36C92.7826 261.36 93.9226 261.202 94.9993 260.885C96.1393 260.505 97.1526 260.03 98.0393 259.46C98.9259 258.827 99.6226 258.098 100.129 257.275C100.636 256.388 100.889 255.438 100.889 254.425V250.15C97.1526 250.15 94.1126 250.435 91.7693 251.005C89.4893 251.575 87.8109 252.335 86.7343 253.285C85.6576 254.235 85.1193 255.343 85.1193 256.61C85.1193 257.877 85.4359 258.858 86.0693 259.555C86.7026 260.252 87.4943 260.727 88.4443 260.98C89.4576 261.233 90.5026 261.36 91.5793 261.36ZM155.609 273.14C152.569 273.14 149.529 272.823 146.489 272.19C143.512 271.62 140.757 270.702 138.224 269.435C135.754 268.105 133.759 266.427 132.239 264.4C130.719 262.373 129.959 259.903 129.959 256.99C129.959 256.8 129.959 256.61 129.959 256.42C129.959 256.167 129.99 255.913 130.054 255.66H147.629C147.565 255.85 147.534 256.04 147.534 256.23C147.534 256.42 147.534 256.578 147.534 256.705C147.597 257.845 147.977 258.795 148.674 259.555C149.434 260.315 150.415 260.885 151.619 261.265C152.822 261.645 154.152 261.835 155.609 261.835C156.495 261.835 157.54 261.772 158.744 261.645C160.01 261.518 161.119 261.202 162.069 260.695C163.019 260.188 163.494 259.333 163.494 258.13C163.494 257.053 162.924 256.262 161.784 255.755C160.707 255.185 159.25 254.742 157.414 254.425C155.64 254.045 153.677 253.665 151.524 253.285C149.18 252.905 146.805 252.43 144.399 251.86C142.055 251.227 139.87 250.372 137.844 249.295C135.817 248.155 134.17 246.667 132.904 244.83C131.7 242.993 131.099 240.618 131.099 237.705C131.099 234.412 131.764 231.657 133.094 229.44C134.487 227.223 136.355 225.482 138.699 224.215C141.105 222.885 143.797 221.967 146.774 221.46C149.814 220.89 152.98 220.605 156.274 220.605C159.124 220.605 161.942 220.89 164.729 221.46C167.579 221.967 170.175 222.822 172.519 224.025C174.862 225.165 176.73 226.685 178.124 228.585C179.517 230.485 180.214 232.797 180.214 235.52C180.214 235.71 180.214 235.963 180.214 236.28C180.214 236.533 180.182 236.723 180.119 236.85H162.734V236.09C162.734 235.14 162.385 234.38 161.689 233.81C161.055 233.177 160.2 232.733 159.124 232.48C158.11 232.163 157.065 232.005 155.989 232.005C155.609 232.005 155.039 232.037 154.279 232.1C153.519 232.1 152.727 232.195 151.904 232.385C151.144 232.575 150.479 232.892 149.909 233.335C149.402 233.778 149.149 234.412 149.149 235.235C149.149 235.995 149.497 236.628 150.194 237.135C150.954 237.578 151.935 237.958 153.139 238.275C154.405 238.528 155.799 238.813 157.319 239.13C159.725 239.573 162.322 240.017 165.109 240.46C167.895 240.84 170.524 241.537 172.994 242.55C175.527 243.5 177.585 244.988 179.169 247.015C180.752 248.978 181.544 251.765 181.544 255.375C181.544 258.795 180.847 261.677 179.454 264.02C178.06 266.3 176.16 268.105 173.754 269.435C171.347 270.765 168.56 271.715 165.394 272.285C162.29 272.855 159.029 273.14 155.609 273.14ZM217.58 273.14C211.563 273.14 206.338 272.222 201.905 270.385C197.535 268.485 194.146 265.603 191.74 261.74C189.396 257.877 188.225 252.937 188.225 246.92C188.225 241.03 189.396 236.153 191.74 232.29C194.083 228.427 197.345 225.545 201.525 223.645C205.768 221.682 210.74 220.7 216.44 220.7C222.456 220.7 227.555 221.65 231.735 223.55C235.978 225.387 239.208 228.237 241.425 232.1C243.641 235.963 244.75 240.903 244.75 246.92V250.15H207.13C207.13 252.43 207.446 254.393 208.08 256.04C208.776 257.687 209.853 258.953 211.31 259.84C212.83 260.663 214.793 261.075 217.2 261.075C218.91 261.075 220.335 260.885 221.475 260.505C222.678 260.125 223.628 259.618 224.325 258.985C225.085 258.288 225.623 257.497 225.94 256.61C226.256 255.723 226.415 254.773 226.415 253.76H244.75C244.75 256.737 244.18 259.428 243.04 261.835C241.9 264.242 240.19 266.3 237.91 268.01C235.63 269.657 232.78 270.923 229.36 271.81C226.003 272.697 222.076 273.14 217.58 273.14ZM207.225 241.22H225.655C225.655 239.89 225.465 238.718 225.085 237.705C224.705 236.628 224.135 235.742 223.375 235.045C222.678 234.285 221.791 233.715 220.715 233.335C219.701 232.955 218.53 232.765 217.2 232.765C215.11 232.765 213.368 233.113 211.975 233.81C210.581 234.507 209.505 235.488 208.745 236.755C207.985 237.958 207.478 239.447 207.225 241.22ZM272.774 273.14C268.341 273.14 264.541 272.19 261.374 270.29C258.207 268.327 255.769 265.413 254.059 261.55C252.412 257.623 251.589 252.715 251.589 246.825C251.589 240.998 252.412 236.153 254.059 232.29C255.769 228.427 258.207 225.545 261.374 223.645C264.541 221.682 268.341 220.7 272.774 220.7C274.547 220.7 276.257 220.922 277.904 221.365C279.614 221.745 281.166 222.378 282.559 223.265C284.016 224.088 285.219 225.165 286.169 226.495H286.834V203.125H305.739V272H290.349L289.019 264.875H288.354C286.581 267.725 284.364 269.815 281.704 271.145C279.044 272.475 276.067 273.14 272.774 273.14ZM278.664 259.175C280.627 259.175 282.211 258.7 283.414 257.75C284.681 256.8 285.599 255.533 286.169 253.95C286.739 252.303 287.024 250.498 287.024 248.535V245.4C287.024 243.943 286.866 242.582 286.549 241.315C286.232 239.985 285.726 238.845 285.029 237.895C284.396 236.882 283.541 236.09 282.464 235.52C281.387 234.95 280.121 234.665 278.664 234.665C276.701 234.665 275.117 235.077 273.914 235.9C272.711 236.723 271.824 237.863 271.254 239.32C270.747 240.777 270.494 242.487 270.494 244.45V249.485C270.494 251.448 270.747 253.158 271.254 254.615C271.824 256.072 272.711 257.212 273.914 258.035C275.117 258.795 276.701 259.175 278.664 259.175ZM334.304 215.95V203.125H353.209V215.95H334.304ZM334.304 272V221.84H353.209V272H334.304ZM364.64 272V221.84H380.125L381.36 229.44H382.025C383.355 227.477 384.907 225.862 386.68 224.595C388.454 223.265 390.417 222.283 392.57 221.65C394.724 221.017 396.94 220.7 399.22 220.7C403.21 220.7 406.472 221.46 409.005 222.98C411.602 224.437 413.534 226.558 414.8 229.345C416.067 232.132 416.7 235.52 416.7 239.51V272H397.795V241.79C397.795 240.713 397.637 239.763 397.32 238.94C397.067 238.053 396.687 237.293 396.18 236.66C395.674 236.027 395.009 235.552 394.185 235.235C393.425 234.855 392.507 234.665 391.43 234.665C389.847 234.665 388.454 235.045 387.25 235.805C386.11 236.502 385.192 237.452 384.495 238.655C383.862 239.795 383.545 241.093 383.545 242.55V272H364.64ZM446.405 272V206.64H467.4V230.485H490.485V206.64H511.48V272H490.485V247.205H467.4V272H446.405ZM550.146 273.14C544.446 273.14 539.474 272.19 535.231 270.29C531.051 268.327 527.789 265.413 525.446 261.55C523.102 257.623 521.931 252.747 521.931 246.92C521.931 241.03 523.102 236.153 525.446 232.29C527.789 228.427 531.051 225.545 535.231 223.645C539.474 221.682 544.446 220.7 550.146 220.7C555.846 220.7 560.817 221.682 565.061 223.645C569.304 225.545 572.597 228.427 574.941 232.29C577.284 236.153 578.456 241.03 578.456 246.92C578.456 252.747 577.284 257.623 574.941 261.55C572.597 265.413 569.304 268.327 565.061 270.29C560.817 272.19 555.846 273.14 550.146 273.14ZM550.146 260.315C552.362 260.315 554.167 259.903 555.561 259.08C556.954 258.193 557.967 256.958 558.601 255.375C559.234 253.792 559.551 251.892 559.551 249.675V244.26C559.551 242.043 559.234 240.143 558.601 238.56C557.967 236.913 556.954 235.678 555.561 234.855C554.167 233.968 552.362 233.525 550.146 233.525C547.929 233.525 546.124 233.968 544.731 234.855C543.401 235.678 542.419 236.913 541.786 238.56C541.152 240.143 540.836 242.043 540.836 244.26V249.675C540.836 251.892 541.152 253.792 541.786 255.375C542.419 256.958 543.401 258.193 544.731 259.08C546.124 259.903 547.929 260.315 550.146 260.315ZM604.865 273.14C598.912 273.14 594.51 271.493 591.66 268.2C588.81 264.907 587.385 260.283 587.385 254.33V221.84H606.29V252.05C606.29 253.063 606.417 254.013 606.67 254.9C606.987 255.787 607.398 256.547 607.905 257.18C608.412 257.813 609.077 258.32 609.9 258.7C610.723 259.017 611.642 259.175 612.655 259.175C614.238 259.175 615.6 258.827 616.74 258.13C617.943 257.37 618.862 256.388 619.495 255.185C620.192 253.982 620.54 252.683 620.54 251.29V221.84H639.445V272H623.96L623.01 264.4H622.345C621.142 266.237 619.59 267.82 617.69 269.15C615.853 270.48 613.827 271.462 611.61 272.095C609.393 272.792 607.145 273.14 604.865 273.14ZM674.119 273.14C671.079 273.14 668.039 272.823 664.999 272.19C662.023 271.62 659.268 270.702 656.734 269.435C654.264 268.105 652.269 266.427 650.749 264.4C649.229 262.373 648.469 259.903 648.469 256.99C648.469 256.8 648.469 256.61 648.469 256.42C648.469 256.167 648.501 255.913 648.564 255.66H666.139C666.076 255.85 666.044 256.04 666.044 256.23C666.044 256.42 666.044 256.578 666.044 256.705C666.108 257.845 666.488 258.795 667.184 259.555C667.944 260.315 668.926 260.885 670.129 261.265C671.333 261.645 672.663 261.835 674.119 261.835C675.006 261.835 676.051 261.772 677.254 261.645C678.521 261.518 679.629 261.202 680.579 260.695C681.529 260.188 682.004 259.333 682.004 258.13C682.004 257.053 681.434 256.262 680.294 255.755C679.218 255.185 677.761 254.742 675.924 254.425C674.151 254.045 672.188 253.665 670.034 253.285C667.691 252.905 665.316 252.43 662.909 251.86C660.566 251.227 658.381 250.372 656.354 249.295C654.328 248.155 652.681 246.667 651.414 244.83C650.211 242.993 649.609 240.618 649.609 237.705C649.609 234.412 650.274 231.657 651.604 229.44C652.998 227.223 654.866 225.482 657.209 224.215C659.616 222.885 662.308 221.967 665.284 221.46C668.324 220.89 671.491 220.605 674.784 220.605C677.634 220.605 680.453 220.89 683.239 221.46C686.089 221.967 688.686 222.822 691.029 224.025C693.373 225.165 695.241 226.685 696.634 228.585C698.028 230.485 698.724 232.797 698.724 235.52C698.724 235.71 698.724 235.963 698.724 236.28C698.724 236.533 698.693 236.723 698.629 236.85H681.244V236.09C681.244 235.14 680.896 234.38 680.199 233.81C679.566 233.177 678.711 232.733 677.634 232.48C676.621 232.163 675.576 232.005 674.499 232.005C674.119 232.005 673.549 232.037 672.789 232.1C672.029 232.1 671.238 232.195 670.414 232.385C669.654 232.575 668.989 232.892 668.419 233.335C667.913 233.778 667.659 234.412 667.659 235.235C667.659 235.995 668.008 236.628 668.704 237.135C669.464 237.578 670.446 237.958 671.649 238.275C672.916 238.528 674.309 238.813 675.829 239.13C678.236 239.573 680.833 240.017 683.619 240.46C686.406 240.84 689.034 241.537 691.504 242.55C694.038 243.5 696.096 244.988 697.679 247.015C699.263 248.978 700.054 251.765 700.054 255.375C700.054 258.795 699.358 261.677 697.964 264.02C696.571 266.3 694.671 268.105 692.264 269.435C689.858 270.765 687.071 271.715 683.904 272.285C680.801 272.855 677.539 273.14 674.119 273.14ZM730.295 273.14C726.875 273.14 723.835 272.76 721.175 272C718.579 271.177 716.552 269.783 715.095 267.82C713.639 265.857 712.91 263.165 712.91 259.745V234.665H705.88V221.84H713.67L717.755 206.64H731.815V221.84H742.455V234.665H731.815V253.76C731.815 255.913 732.164 257.56 732.86 258.7C733.557 259.777 734.982 260.315 737.135 260.315H742.455V271.43C741.442 271.747 740.175 272.032 738.655 272.285C737.199 272.602 735.71 272.823 734.19 272.95C732.734 273.077 731.435 273.14 730.295 273.14ZM777.162 273.14C771.462 273.14 766.491 272.19 762.247 270.29C758.067 268.327 754.806 265.413 752.462 261.55C750.119 257.623 748.947 252.747 748.947 246.92C748.947 241.03 750.119 236.153 752.462 232.29C754.806 228.427 758.067 225.545 762.247 223.645C766.491 221.682 771.462 220.7 777.162 220.7C782.862 220.7 787.834 221.682 792.077 223.645C796.321 225.545 799.614 228.427 801.957 232.29C804.301 236.153 805.472 241.03 805.472 246.92C805.472 252.747 804.301 257.623 801.957 261.55C799.614 265.413 796.321 268.327 792.077 270.29C787.834 272.19 782.862 273.14 777.162 273.14ZM777.162 260.315C779.379 260.315 781.184 259.903 782.577 259.08C783.971 258.193 784.984 256.958 785.617 255.375C786.251 253.792 786.567 251.892 786.567 249.675V244.26C786.567 242.043 786.251 240.143 785.617 238.56C784.984 236.913 783.971 235.678 782.577 234.855C781.184 233.968 779.379 233.525 777.162 233.525C774.946 233.525 773.141 233.968 771.747 234.855C770.417 235.678 769.436 236.913 768.802 238.56C768.169 240.143 767.852 242.043 767.852 244.26V249.675C767.852 251.892 768.169 253.792 768.802 255.375C769.436 256.958 770.417 258.193 771.747 259.08C773.141 259.903 774.946 260.315 777.162 260.315ZM814.592 272V221.84H830.077L831.312 229.44H831.977C833.307 227.477 834.858 225.862 836.632 224.595C838.405 223.265 840.368 222.283 842.522 221.65C844.675 221.017 846.892 220.7 849.172 220.7C853.162 220.7 856.423 221.46 858.957 222.98C861.553 224.437 863.485 226.558 864.752 229.345C866.018 232.132 866.652 235.52 866.652 239.51V272H847.747V241.79C847.747 240.713 847.588 239.763 847.272 238.94C847.018 238.053 846.638 237.293 846.132 236.66C845.625 236.027 844.96 235.552 844.137 235.235C843.377 234.855 842.458 234.665 841.382 234.665C839.798 234.665 838.405 235.045 837.202 235.805C836.062 236.502 835.143 237.452 834.447 238.655C833.813 239.795 833.497 241.093 833.497 242.55V272H814.592ZM878.051 290.24V282.165C879.634 282.038 881.154 281.5 882.611 280.55C884.131 279.663 885.366 278.46 886.316 276.94C887.329 275.42 887.836 273.773 887.836 272H878.051V253.095H898.191V269.815C898.191 274.122 897.241 277.732 895.341 280.645C893.504 283.558 891.034 285.807 887.931 287.39C884.891 288.973 881.598 289.923 878.051 290.24ZM944.617 272V223.36H923.147V206.64H986.987V223.36H965.612V272H944.617ZM988.046 272L1011.42 237.42L990.326 206.64H1015.69L1025.57 223.36H1025.95L1035.93 206.64H1059.39L1038.21 237.515L1061.58 272H1036.12L1024.05 251.67H1023.67L1011.61 272H988.046ZM1067.4 272V253.095H1087.54V272H1067.4Z" fill="#1B1B1B"/>
</svg>
